<svg width="262" height="291" viewBox="0 0 262 291" fill="none" xmlns="http://www.w3.org/2000/svg">
<path opacity="0.2" d="M217.546 193.442C217.546 193.442 299.346 65.8128 241.022 19.4183C182.697 -26.9762 -13.1633 12.2714 25.5706 110.41C64.3082 208.545 -33.8527 221.456 12.9323 275.418C59.7137 329.384 208.024 221.805 217.546 193.442Z" fill="#3C5261"/>
<path opacity="0.5" d="M123.39 221.06C123.256 221.011 123.185 220.86 123.231 220.726C123.281 220.589 123.432 220.516 123.569 220.565C124.89 221.035 126.232 221.49 127.56 221.92C127.563 221.92 127.568 221.924 127.571 221.925C127.702 221.973 127.774 222.119 127.731 222.254C127.687 222.392 127.537 222.469 127.399 222.425C126.065 221.994 124.715 221.536 123.392 221.064L123.39 221.06ZM119.437 219.581C119.434 219.581 119.434 219.581 119.431 219.58C118.1 219.059 116.784 218.518 115.515 217.974C115.382 217.916 115.318 217.76 115.376 217.628C115.434 217.493 115.56 217.432 115.724 217.49C116.985 218.03 118.298 218.571 119.625 219.091C119.761 219.143 119.828 219.296 119.773 219.432C119.722 219.563 119.571 219.63 119.437 219.581ZM131.429 223.652C131.301 223.604 131.228 223.464 131.268 223.332C131.307 223.193 131.454 223.11 131.595 223.151C132.929 223.538 134.295 223.911 135.663 224.26C135.81 224.286 135.892 224.442 135.853 224.581C135.818 224.72 135.673 224.806 135.533 224.768C134.16 224.418 132.789 224.044 131.449 223.656C131.44 223.657 131.435 223.656 131.429 223.652ZM111.67 216.252C111.664 216.251 111.656 216.246 111.651 216.245C110.369 215.646 109.087 215.017 107.847 214.385C107.716 214.319 107.665 214.16 107.734 214.03C107.799 213.902 107.964 213.834 108.089 213.916C109.324 214.545 110.598 215.169 111.877 215.768C112.008 215.831 112.066 215.988 112.003 216.119C111.945 216.24 111.799 216.297 111.67 216.252ZM139.614 225.748C139.491 225.704 139.419 225.573 139.447 225.441C139.48 225.298 139.62 225.211 139.764 225.241C141.165 225.553 142.556 225.837 143.893 226.087C144.034 226.114 144.131 226.252 144.104 226.393C144.076 226.537 143.938 226.631 143.797 226.604C142.452 226.352 141.057 226.068 139.65 225.758C139.636 225.755 139.625 225.75 139.614 225.748ZM104.151 212.405C104.138 212.4 104.127 212.395 104.114 212.386C102.886 211.704 101.658 210.98 100.457 210.247C100.335 210.171 100.295 210.008 100.372 209.883C100.446 209.756 100.605 209.719 100.734 209.794C101.924 210.525 103.148 211.242 104.37 211.923C104.497 211.991 104.542 212.155 104.471 212.282C104.41 212.402 104.272 212.449 104.151 212.405ZM147.918 227.296C147.803 227.253 147.729 227.137 147.75 227.009C147.772 226.867 147.905 226.767 148.05 226.789C149.476 227 150.882 227.181 152.229 227.328C152.377 227.336 152.479 227.475 152.463 227.619C152.448 227.762 152.316 227.868 152.173 227.853C150.819 227.705 149.405 227.522 147.974 227.31C147.953 227.309 147.934 227.302 147.918 227.296ZM96.9589 207.986C96.9397 207.979 96.921 207.97 96.9034 207.955C95.7267 207.159 94.5678 206.332 93.4545 205.496C93.337 205.406 93.3159 205.241 93.4023 205.126C93.4888 205.011 93.6532 204.992 93.7723 205.074C94.8777 205.905 96.0287 206.728 97.1975 207.52C97.3166 207.601 97.3495 207.765 97.2677 207.887C97.198 207.991 97.0681 208.027 96.9589 207.986ZM156.317 228.207C156.211 228.166 156.137 228.061 156.145 227.943C156.156 227.796 156.279 227.688 156.424 227.695C157.858 227.788 159.273 227.842 160.631 227.862C160.78 227.861 160.894 227.983 160.889 228.131C160.888 228.277 160.769 228.395 160.623 228.393C159.257 228.371 157.833 228.316 156.39 228.227C156.364 228.222 156.339 228.217 156.317 228.207ZM90.2192 202.899C90.1921 202.888 90.1655 202.874 90.1405 202.851C89.0473 201.925 87.9893 200.968 86.9967 200.006C86.8904 199.903 86.8901 199.737 86.9919 199.633C87.0936 199.53 87.2644 199.524 87.3646 199.628C88.3469 200.583 89.3975 201.533 90.4805 202.451C90.5912 202.545 90.6062 202.712 90.5118 202.823C90.4398 202.909 90.3205 202.935 90.2192 202.899ZM164.757 228.312C164.661 228.276 164.591 228.187 164.585 228.077C164.578 227.933 164.692 227.808 164.837 227.801C166.278 227.734 167.688 227.621 169.027 227.459C169.168 227.442 169.304 227.541 169.319 227.69C169.336 227.834 169.234 227.966 169.088 227.982C167.734 228.144 166.312 228.262 164.86 228.326C164.826 228.331 164.79 228.324 164.757 228.312ZM84.1776 197.008C84.1392 196.995 84.1006 196.967 84.0716 196.936C83.1174 195.849 82.2273 194.733 81.4217 193.62C81.3362 193.501 81.3613 193.339 81.4801 193.253C81.5989 193.168 81.7666 193.194 81.8494 193.312C82.6458 194.413 83.5268 195.515 84.469 196.587C84.5646 196.699 84.5536 196.864 84.4445 196.96C84.3672 197.027 84.2647 197.043 84.1776 197.008ZM173.132 227.284C173.05 227.254 172.985 227.183 172.967 227.092C172.936 226.948 173.027 226.808 173.17 226.78C174.605 226.472 175.964 226.097 177.208 225.671C177.343 225.624 177.493 225.696 177.543 225.835C177.59 225.972 177.517 226.122 177.379 226.169C176.113 226.606 174.735 226.986 173.279 227.295C173.23 227.309 173.178 227.302 173.132 227.284ZM79.2747 190.154C79.2176 190.132 79.1665 190.093 79.1367 190.034C78.6438 189.153 78.2027 188.261 77.8204 187.383C77.7612 187.249 77.823 187.094 77.9573 187.035C78.0882 186.978 78.2465 187.038 78.3058 187.172C78.679 188.036 79.1143 188.912 79.5986 189.777C79.6707 189.905 79.6258 190.063 79.4979 190.136C79.4255 190.177 79.3455 190.182 79.2747 190.154ZM181.07 224.491C181.012 224.471 180.961 224.429 180.929 224.367C180.86 224.24 180.908 224.079 181.036 224.01C182.315 223.319 183.465 222.527 184.454 221.659C184.563 221.56 184.73 221.575 184.827 221.684C184.923 221.793 184.911 221.961 184.802 222.057C183.782 222.95 182.602 223.763 181.287 224.474C181.217 224.513 181.138 224.516 181.07 224.491ZM187.431 219.043C187.404 219.032 187.38 219.019 187.357 219C187.243 218.908 187.228 218.744 187.317 218.629C188.222 217.506 189.004 216.342 189.63 215.169C189.698 215.041 189.852 214.989 189.988 215.059C190.115 215.127 190.164 215.285 190.095 215.416C189.449 216.62 188.652 217.814 187.724 218.962C187.655 219.051 187.535 219.08 187.431 219.043ZM191.341 211.628C191.215 211.581 191.142 211.444 191.179 211.31C191.538 209.998 191.747 208.619 191.801 207.216C191.806 207.071 191.93 206.957 192.076 206.962C192.225 206.976 192.335 207.09 192.331 207.236C192.274 208.679 192.059 210.095 191.688 211.449C191.65 211.588 191.505 211.671 191.366 211.633C191.354 211.634 191.346 211.632 191.341 211.628ZM191.718 203.277C191.63 203.245 191.563 203.168 191.55 203.069C191.354 201.768 191.054 200.432 190.63 198.99C190.589 198.851 190.67 198.705 190.81 198.662C190.952 198.624 191.098 198.702 191.136 198.841C191.566 200.307 191.871 201.665 192.072 202.988C192.094 203.132 191.995 203.268 191.851 203.288C191.805 203.299 191.759 203.293 191.718 203.277ZM189.414 195.173C189.345 195.148 189.288 195.094 189.258 195.021C188.806 193.851 188.29 192.617 187.634 191.134C187.575 191 187.637 190.845 187.771 190.786C187.905 190.727 188.06 190.789 188.119 190.923C188.78 192.413 189.297 193.656 189.754 194.832C189.807 194.968 189.74 195.121 189.604 195.174C189.541 195.197 189.474 195.196 189.414 195.173ZM186.043 187.424C185.98 187.401 185.925 187.352 185.897 187.285C185.307 185.996 184.725 184.708 184.169 183.423C184.109 183.289 184.171 183.134 184.305 183.075C184.438 183.024 184.594 183.08 184.651 183.214C185.205 184.493 185.787 185.778 186.373 187.063C186.433 187.195 186.376 187.351 186.242 187.413C186.179 187.447 186.106 187.448 186.043 187.424ZM182.742 179.651C182.671 179.625 182.614 179.571 182.584 179.495C182.052 178.041 181.637 176.718 181.313 175.445C181.279 175.301 181.362 175.159 181.503 175.124C181.646 175.084 181.79 175.173 181.824 175.314C182.142 176.572 182.554 177.88 183.078 179.314C183.128 179.452 183.059 179.6 182.92 179.653C182.863 179.674 182.799 179.673 182.742 179.651ZM180.743 171.477C180.651 171.441 180.582 171.358 180.572 171.254C180.438 169.783 180.458 168.35 180.627 166.993C180.646 166.847 180.777 166.743 180.923 166.762C181.064 166.787 181.169 166.912 181.15 167.058C180.985 168.378 180.967 169.773 181.097 171.205C181.11 171.351 181.004 171.477 180.858 171.49C180.819 171.497 180.779 171.489 180.743 171.477ZM181.943 163.233C181.935 163.232 181.93 163.228 181.921 163.226C181.79 163.163 181.735 163.006 181.795 162.874C182.359 161.686 183.116 160.514 184.112 159.289C184.204 159.177 184.374 159.157 184.482 159.251C184.596 159.343 184.615 159.508 184.52 159.621C183.554 160.814 182.818 161.952 182.27 163.1C182.211 163.226 182.069 163.281 181.943 163.233ZM187.112 156.627C187.074 156.614 187.04 156.59 187.014 156.561C186.914 156.457 186.917 156.288 187.024 156.186C187.953 155.31 188.997 154.395 190.216 153.394C190.328 153.298 190.491 153.318 190.587 153.43C190.679 153.544 190.663 153.708 190.551 153.8C189.342 154.795 188.305 155.702 187.387 156.571C187.308 156.644 187.202 156.662 187.112 156.627ZM193.6 151.221C193.554 151.203 193.515 151.175 193.482 151.134C193.393 151.017 193.416 150.852 193.53 150.763C194.406 150.085 195.303 149.405 196.211 148.713L196.89 148.196C197.006 148.107 197.172 148.13 197.261 148.247C197.35 148.363 197.327 148.528 197.211 148.614L196.532 149.131C195.627 149.821 194.73 150.504 193.854 151.179C193.778 151.24 193.682 151.251 193.6 151.221ZM200.302 146.072C200.259 146.055 200.217 146.027 200.187 145.989C200.097 145.875 200.117 145.709 200.231 145.62C201.451 144.66 202.521 143.794 203.503 142.963C203.614 142.868 203.779 142.879 203.874 142.996C203.97 143.105 203.953 143.272 203.844 143.368C202.856 144.2 201.782 145.071 200.558 146.037C200.483 146.092 200.384 146.103 200.302 146.072ZM206.74 140.61C206.701 140.597 206.667 140.576 206.638 140.544C206.538 140.437 206.544 140.268 206.651 140.172C207.736 139.15 208.705 138.171 209.605 137.185C209.702 137.075 209.87 137.072 209.978 137.166C210.084 137.265 210.094 137.431 209.994 137.54C209.082 138.539 208.106 139.526 207.01 140.556C206.939 140.625 206.833 140.642 206.74 140.61ZM99.9168 93.6784C99.9112 93.6773 99.9061 93.6734 99.9004 93.6723C99.8874 93.6639 98.3592 92.9765 96.095 91.7299C95.9681 91.6588 95.9227 91.498 95.991 91.3706C96.0616 91.2466 96.2156 91.1912 96.3504 91.2667C98.5931 92.5034 100.102 93.1842 100.116 93.1898C100.248 93.2501 100.309 93.4052 100.248 93.537C100.192 93.6637 100.048 93.7269 99.9168 93.6784ZM212.399 134.361C212.377 134.354 212.353 134.34 212.333 134.325C212.215 134.238 212.191 134.072 212.278 133.954C213.136 132.805 213.903 131.626 214.563 130.456C214.634 130.332 214.792 130.287 214.922 130.355C215.049 130.427 215.094 130.587 215.023 130.714C214.353 131.906 213.571 133.102 212.704 134.27C212.632 134.367 212.506 134.402 212.399 134.361ZM92.4797 89.6044C92.4633 89.5984 92.4474 89.5895 92.4316 89.5806C91.2055 88.8135 90.0159 88.0241 88.8978 87.2279C88.7798 87.1409 88.7497 86.9772 88.8367 86.8592C88.9236 86.7413 89.0926 86.7151 89.206 86.7953C90.3195 87.5848 91.4978 88.372 92.716 89.1347C92.839 89.2109 92.8781 89.3734 92.8013 89.4992C92.7284 89.6052 92.5945 89.6469 92.4797 89.6044ZM85.5921 84.6935C85.5649 84.6825 85.5411 84.6691 85.5156 84.6496C84.3851 83.7194 83.3205 82.7667 82.3488 81.8171C82.2454 81.7154 82.2423 81.548 82.344 81.4446C82.4463 81.3384 82.6121 81.3437 82.7167 81.4398C83.6758 82.3782 84.7308 83.3203 85.851 84.2428C85.9623 84.3343 85.9801 84.5015 85.8852 84.615C85.8155 84.7041 85.6961 84.731 85.5921 84.6935ZM79.585 78.7603C79.5415 78.7432 79.5029 78.7153 79.4716 78.6801C78.5281 77.5223 77.7041 76.3523 77.0177 75.1969C76.9422 75.0713 76.9849 74.9098 77.1105 74.8343C77.239 74.7594 77.4006 74.8021 77.4728 74.93C78.1437 76.059 78.9535 77.2117 79.8804 78.3487C79.9727 78.4629 79.9561 78.6265 79.8418 78.7187C79.769 78.778 79.6693 78.794 79.585 78.7603ZM216.494 127.019L216.491 127.019C216.355 126.967 216.288 126.813 216.34 126.677L216.406 126.502C216.867 125.256 217.237 123.967 217.496 122.673C217.526 122.53 217.663 122.439 217.807 122.467C217.96 122.51 218.045 122.635 218.015 122.775C217.75 124.097 217.376 125.412 216.904 126.685L216.834 126.868C216.778 127.004 216.628 127.071 216.494 127.019ZM75.3599 71.5004C75.2886 71.475 75.2295 71.4169 75.2029 71.3416C74.7188 69.9557 74.4104 68.5538 74.2911 67.1734C74.278 67.0275 74.3874 66.8992 74.5334 66.8862C74.6777 66.8816 74.8076 66.9825 74.8184 67.1251C74.9317 68.4604 75.2302 69.8225 75.6993 71.1645C75.7462 71.3022 75.6764 71.4527 75.5353 71.5017C75.4785 71.5231 75.4147 71.5196 75.3599 71.5004ZM218.155 118.785C218.051 118.748 217.977 118.646 217.982 118.527C218.032 117.164 217.975 115.761 217.82 114.353C217.804 114.209 217.908 114.077 218.054 114.064C218.201 114.045 218.33 114.152 218.346 114.298C218.505 115.73 218.562 117.16 218.51 118.549C218.506 118.694 218.385 118.809 218.236 118.804C218.207 118.801 218.179 118.796 218.155 118.785ZM74.6693 63.2081C74.5517 63.1651 74.4762 63.0395 74.5005 62.9125C74.6736 61.9772 74.9386 61.036 75.2821 60.1128C75.4381 59.695 75.6133 59.2692 75.8049 58.8494C75.8658 58.7148 76.0092 58.6691 76.155 58.7175C76.2869 58.7778 76.3446 58.9351 76.2871 59.0675C76.1005 59.4765 75.9304 59.8916 75.7798 60.2958C75.4479 61.1891 75.1911 62.1025 75.024 63.0068C74.9964 63.1507 74.8613 63.2448 74.7173 63.2173C74.6998 63.2169 74.6829 63.2136 74.6693 63.2081ZM217.256 110.421C217.176 110.391 217.113 110.323 217.089 110.234C216.775 108.924 216.372 107.574 215.893 106.219C215.846 106.084 215.916 105.931 216.054 105.884C216.19 105.834 216.34 105.904 216.392 106.045C216.878 107.42 217.284 108.788 217.604 110.116C217.638 110.257 217.55 110.398 217.408 110.432C217.357 110.44 217.305 110.436 217.256 110.421ZM78.088 55.5764C78.0637 55.5659 78.0399 55.5525 78.0166 55.5364C77.902 55.4471 77.8814 55.2794 77.9706 55.1648C78.7985 54.1119 79.8696 53.1495 81.1492 52.3059C81.2698 52.2266 81.4387 52.2618 81.5124 52.3813C81.5913 52.5046 81.56 52.6683 81.4366 52.7471C80.2041 53.5587 79.176 54.4796 78.3855 55.4899C78.3147 55.5846 78.1915 55.6167 78.088 55.5764ZM214.475 102.463C214.413 102.439 214.357 102.391 214.326 102.323C213.774 101.097 213.149 99.8334 212.465 98.5585C212.396 98.4283 212.444 98.2707 212.571 98.2014C212.698 98.135 212.859 98.1833 212.928 98.3106C213.619 99.5956 214.252 100.875 214.807 102.108C214.866 102.239 214.807 102.398 214.675 102.457C214.611 102.489 214.538 102.487 214.475 102.463ZM84.9504 50.8594C84.882 50.8346 84.8246 50.7827 84.7975 50.7102C84.7445 50.5742 84.812 50.4204 84.9451 50.3669C86.1747 49.8765 87.5396 49.4443 88.9997 49.08C89.1432 49.049 89.2854 49.1318 89.3199 49.273C89.3543 49.4141 89.2682 49.5586 89.1297 49.5935C87.691 49.9531 86.3481 50.3779 85.141 50.8578C85.0752 50.8804 85.0081 50.8792 84.9504 50.8594ZM210.458 95.0497C210.406 95.0309 210.36 94.9958 210.329 94.9459C209.579 93.7989 208.763 92.648 207.895 91.5251C207.806 91.4086 207.829 91.2433 207.943 91.1539C208.06 91.0622 208.227 91.0912 208.314 91.2016C209.188 92.3402 210.017 93.5023 210.77 94.6588C210.849 94.7821 210.815 94.9453 210.694 95.0246C210.621 95.0692 210.535 95.0761 210.458 95.0497ZM93.1143 48.7643C93.0266 48.7329 92.9594 48.6557 92.9462 48.5566C92.9241 48.412 93.0228 48.2787 93.1675 48.2567C94.5027 48.0557 95.9211 47.8941 97.3811 47.7756C97.5242 47.762 97.6525 47.8714 97.6656 48.0173C97.6787 48.1632 97.5698 48.2886 97.4239 48.3016C95.9729 48.419 94.5692 48.5805 93.2463 48.7779C93.1985 48.7834 93.1556 48.7781 93.1143 48.7643ZM205.315 88.3631C205.274 88.3494 205.241 88.3254 205.209 88.2902C204.288 87.2596 203.314 86.2334 202.312 85.243C202.209 85.1384 202.209 84.9716 202.31 84.8682C202.415 84.7653 202.581 84.7707 202.685 84.8668C203.694 85.8673 204.676 86.9008 205.604 87.9414C205.7 88.0506 205.692 88.2158 205.582 88.3147C205.508 88.3796 205.406 88.3951 205.315 88.3631ZM101.528 48.0689C101.43 48.0325 101.36 47.9401 101.355 47.828C101.351 47.6809 101.468 47.5599 101.612 47.5553C102.953 47.5223 104.379 47.5201 105.849 47.5498C105.995 47.5514 106.112 47.6733 106.108 47.8187C106.103 47.9642 105.984 48.0818 105.839 48.0774C104.378 48.0466 102.961 48.0475 101.626 48.0816C101.593 48.0842 101.559 48.0777 101.528 48.0689ZM199.328 82.4162C199.298 82.4047 199.27 82.3874 199.245 82.3651C198.208 81.447 197.125 80.5317 196.029 79.6491C195.915 79.557 195.897 79.3898 195.989 79.2785C196.08 79.1673 196.251 79.1473 196.359 79.2411C197.463 80.1282 198.551 81.0474 199.595 81.9727C199.702 82.0694 199.714 82.2355 199.618 82.3428C199.543 82.4252 199.427 82.4526 199.328 82.4162ZM109.974 48.2366C109.867 48.1958 109.796 48.0916 109.802 47.9726C109.809 47.8277 109.935 47.7173 110.08 47.7274C111.449 47.808 112.868 47.9186 114.302 48.0556C114.446 48.0713 114.553 48.2001 114.54 48.3439C114.527 48.4877 114.398 48.5947 114.252 48.5813C112.826 48.4459 111.413 48.3336 110.047 48.2507C110.024 48.2492 109.998 48.2443 109.974 48.2366ZM192.752 77.1201C192.73 77.113 192.709 77.1002 192.688 77.0845C191.587 76.277 190.429 75.4614 189.241 74.6607C189.119 74.5817 189.089 74.4151 189.171 74.296C189.252 74.1742 189.414 74.1407 189.538 74.226C190.731 75.0305 191.897 75.8506 193 76.6615C193.118 76.7485 193.143 76.9112 193.059 77.0296C192.985 77.1238 192.861 77.1586 192.752 77.1201ZM118.386 49.0331C118.274 48.9912 118.199 48.8774 118.217 48.7521C118.237 48.6065 118.368 48.5029 118.513 48.522C119.882 48.6961 121.29 48.8953 122.703 49.1131C122.846 49.1316 122.946 49.2678 122.924 49.4128C122.902 49.5578 122.766 49.6547 122.621 49.6328C121.214 49.4162 119.809 49.2175 118.445 49.0472C118.425 49.0435 118.405 49.0397 118.386 49.0331ZM185.757 72.3876C185.74 72.3815 185.724 72.3727 185.709 72.3638C184.534 71.6329 183.319 70.9029 182.096 70.1949C181.969 70.121 181.927 69.9607 182.001 69.8344C182.072 69.7076 182.235 69.6657 182.361 69.7396C183.593 70.4492 184.811 71.1825 185.99 71.9173C186.113 71.9935 186.152 72.1561 186.076 72.2818C186.005 72.3884 185.871 72.4329 185.757 72.3876ZM126.737 50.3209C126.619 50.2779 126.547 50.1528 126.568 50.0253C126.592 49.8836 126.731 49.7872 126.875 49.8148C128.267 50.0665 129.663 50.3397 131.032 50.6248C131.181 50.6563 131.265 50.7954 131.235 50.9388C131.205 51.0822 131.067 51.1729 130.923 51.1454C129.561 50.8613 128.167 50.5887 126.783 50.3386C126.767 50.3297 126.751 50.3264 126.737 50.3209ZM178.449 68.1571C178.438 68.1521 178.427 68.1499 178.417 68.1421C177.175 67.4743 175.916 66.8179 174.676 66.1975C174.545 66.1343 174.494 65.9724 174.559 65.8445C174.625 65.7138 174.771 65.6421 174.912 65.7277C176.157 66.3521 177.422 67.0067 178.667 67.6779C178.794 67.7462 178.842 67.9075 178.773 68.0377C178.711 68.1515 178.57 68.2006 178.449 68.1571ZM135.012 52.036C134.889 51.9891 134.817 51.8612 134.845 51.7291C134.878 51.5862 135.021 51.4994 135.164 51.5326C136.546 51.8526 137.927 52.1901 139.274 52.5386C139.423 52.5729 139.5 52.7194 139.465 52.8589C139.429 52.9984 139.284 53.0847 139.142 53.0458C137.8 52.7012 136.421 52.3643 135.042 52.0448C135.03 52.0455 135.023 52.041 135.012 52.036ZM143.196 54.1346C143.067 54.0866 142.997 53.9474 143.035 53.8141C143.073 53.6751 143.22 53.5922 143.36 53.6305C144.704 54.0106 146.07 54.4096 147.42 54.8201C147.536 54.8862 147.639 55.0082 147.597 55.1495C147.553 55.2902 147.406 55.3675 147.268 55.3263C145.921 54.9164 144.56 54.5184 143.218 54.1417C143.209 54.1401 143.204 54.139 143.196 54.1346ZM170.899 64.3687C170.89 64.3671 170.885 64.3632 170.88 64.3621C169.617 63.7694 168.324 63.1826 167.036 62.6201C166.903 62.5625 166.843 62.4047 166.9 62.2723C166.958 62.1399 167.101 62.0796 167.249 62.1342C168.54 62.6973 169.835 63.2874 171.103 63.8812C171.235 63.9443 171.292 64.1017 171.229 64.2329C171.17 64.3591 171.028 64.4138 170.899 64.3687ZM151.271 56.6015C151.14 56.553 151.068 56.4076 151.112 56.2725C151.159 56.1324 151.305 56.0579 151.445 56.1052C152.744 56.5353 154.091 56.9948 155.445 57.4734C155.448 57.4739 155.448 57.4739 155.448 57.4739C155.585 57.5235 155.653 57.674 155.607 57.8085C155.557 57.9453 155.405 58.0187 155.269 57.9691C153.917 57.4911 152.576 57.0326 151.28 56.6031C151.28 56.6031 151.277 56.6026 151.271 56.6015ZM163.158 60.9798C163.155 60.9792 163.152 60.9787 163.149 60.9781C161.881 60.4605 160.562 59.9359 159.228 59.429C159.091 59.3765 159.024 59.2261 159.073 59.0893C159.125 58.9558 159.276 58.8853 159.413 58.9348C159.413 58.9348 159.413 58.9348 159.416 58.9354C160.755 59.4463 162.078 59.9685 163.351 60.4901C163.487 60.5453 163.551 60.7009 163.496 60.8338C163.439 60.9634 163.292 61.0288 163.158 60.9798Z" fill="white"/>
<path opacity="0.5" d="M76.5339 184.585C76.5566 184.647 76.6027 184.692 76.6567 184.721C76.7236 184.757 76.8036 184.762 76.8805 184.729C77.0161 184.673 77.0795 184.521 77.0231 184.385C76.6451 183.469 76.317 182.547 76.0492 181.644C76.0064 181.504 75.8562 181.426 75.7195 181.467C75.5791 181.51 75.4993 181.656 75.5421 181.797C75.8174 182.714 76.1493 183.652 76.5339 184.585Z" fill="white"/>
<path opacity="0.5" d="M74.4654 178.731C74.4782 178.795 74.5167 178.847 74.5656 178.884C74.626 178.93 74.7044 178.947 74.7854 178.927C74.9281 178.892 75.0143 178.752 74.9797 178.609C74.7488 177.645 74.568 176.684 74.4437 175.75C74.4232 175.605 74.287 175.505 74.1456 175.524C74.0003 175.544 73.8987 175.677 73.9192 175.822C74.0485 176.771 74.2306 177.749 74.4654 178.731Z" fill="white"/>
<path d="M192.321 240.851C192.321 240.851 195.401 254.171 194.809 256.238C194.218 258.306 195.294 263.102 198.028 253.271C200.762 243.439 202.215 238.206 200.278 237.28C198.338 236.354 195.688 236.133 195.688 236.133L192.321 240.851Z" fill="#D34440"/>
<path d="M190.817 232.426C191.108 233.163 197.195 237.841 197.195 237.841C198.96 239.148 196.032 243.175 194.268 241.868C191.798 240.042 184.332 235.321 184.332 235.321L190.817 232.426Z" fill="#FFD0B0"/>
<path d="M188.578 239.823C188.884 240.257 195.46 232.951 195.46 232.951C195.46 232.951 170.909 205.839 160.089 200.452C156.154 197.372 147.755 208.06 151.694 211.14C151.694 211.143 186.315 236.62 188.578 239.823Z" fill="#00425E"/>
<path d="M146.145 155.335C146.145 155.335 147.897 163.344 141.987 177.228C136.078 191.112 124.701 212.241 124.701 212.241C118.326 215.346 113.287 215.386 111.867 207.115C111.867 207.115 118.894 164.193 121.429 158.092C123.964 151.994 143.231 150.688 146.145 155.335Z" fill="#0B2739"/>
<path d="M148.952 147.357C148.952 147.357 155.032 152.874 158.208 167.639C161.385 182.405 164.265 206.264 164.265 206.264C165.63 211.873 152.108 215.153 150.743 209.544C150.743 209.544 131.672 170.434 130.223 163.983C128.777 157.528 143.866 145.261 148.952 147.357Z" fill="#00425E"/>
<g opacity="0.49">
<g opacity="0.49">
<path opacity="0.49" d="M159.773 200.349C158.658 192.073 156.775 179.138 154.771 169.819C151.597 155.063 145.528 149.545 145.528 149.545C144.053 148.939 141.73 149.562 139.22 150.881C142.883 148.232 146.724 146.6 148.84 147.473C148.84 147.473 154.909 152.988 158.08 167.747C160.495 178.977 162.735 195.464 163.669 202.708C175.517 211.033 195.361 232.977 195.361 232.977C195.361 232.977 194.481 233.957 193.351 235.175C190.571 232.132 175.031 215.284 164.189 206.936C161.096 204.852 159.684 203.088 159.773 200.349Z" fill="#0B2739"/>
</g>
</g>
<path d="M156.592 156.535L158.941 163.323C158.941 163.323 132.285 173.023 117.858 161.298L119.04 157.495C119.04 157.497 148.691 163.489 156.592 156.535Z" fill="white"/>
<path d="M130.094 94.7923C130.094 94.7923 136.172 90.9862 143.985 98.0584C151.798 105.128 162.977 132.534 156.93 158.867C156.93 158.867 127.982 164.962 119.324 159.177C119.324 159.177 115.463 156.658 119.209 142.312C121.8 132.388 116.303 109.336 118.734 104.654C121.162 99.9715 130.094 94.7923 130.094 94.7923Z" fill="#E55E4E"/>
<path d="M121.322 256.102C121.322 256.102 109.612 263.242 107.459 263.334C105.306 263.43 101.079 265.967 111.286 265.446C121.494 264.924 126.927 264.643 127.204 262.515C127.48 260.386 126.861 257.799 126.861 257.799L121.322 256.102Z" fill="#D34440"/>
<path d="M126.703 249.498C126.224 250.137 125.539 257.764 125.539 257.764C125.384 259.951 120.275 259.608 120.43 257.425C120.648 254.369 120.612 245.549 120.612 245.549L126.703 249.498Z" fill="#FFD0B0"/>
<path d="M118.149 254.194C118.065 254.719 127.94 254.036 127.94 254.036C127.94 254.036 129.211 217.382 125.168 205.96C124.482 200.997 110.921 202.854 111.607 207.817C111.604 207.817 118.76 250.307 118.149 254.194Z" fill="#0B2739"/>
<path d="M89.8219 100.455C89.8219 100.455 89.7225 100.304 89.5616 100.053C88.9796 99.1323 87.5991 96.8607 87.3768 95.6779C87.0902 94.173 88.2221 87.592 89.5265 86.3465C90.831 85.101 93.6329 83.8327 94.4723 85.2976C95.3088 86.7598 96.192 88.4955 95.7914 89.228C95.3936 89.9576 95.2824 90.0745 94.0921 89.0826C92.9017 88.0936 92.9397 87.3469 92.9397 87.3469L91.4452 87.8542C91.4452 87.8542 94.5337 90.4821 94.3758 92.1808C94.3758 92.1808 95.4345 92.3546 95.4784 93.6885C95.5223 95.0224 93.9283 98.7418 93.9283 98.7418L94.4547 102.011L90.3923 103.47L89.8219 100.455Z" fill="#FFD0B0"/>
<path d="M91.5211 100.404C91.5211 100.404 95.6182 99.1244 96.5679 100.177C97.5176 101.227 106.146 113.696 106.919 117.987C107.692 122.279 108.048 129.55 100.268 129.13C92.4882 128.71 87.0244 104.414 88.3998 102.237C89.778 100.062 91.5211 100.404 91.5211 100.404Z" fill="#D34440"/>
<path d="M88.6409 99.2715L94.9693 97.7637L96.7472 100.224C93.4466 100.247 90.5919 100.826 88.4736 102.328L88.6409 99.2715Z" fill="white"/>
<path d="M100.637 116.541C115.729 110.323 114.116 99.03 122.404 100.12C130.859 101.231 132.599 106.966 129.645 113.739C126.692 120.512 105.583 137.278 96.4609 126.456C96.7169 121.464 98.1203 117.577 100.637 116.541Z" fill="#D34440"/>
<path d="M104.222 108.463C105.17 107.812 106.452 107.901 107.268 108.751C111.454 113.111 122.724 122.156 127.006 123.637C130.304 124.778 130.945 125.916 130.98 126.587C131 126.968 130.826 127.198 130.826 127.198L129.077 132.947C128.706 134.171 127.38 134.883 126.153 134.431C120.064 132.18 110.511 121.19 103.485 111.88C102.658 110.785 102.986 109.296 104.106 108.549C104.143 108.518 104.184 108.489 104.222 108.463Z" fill="#FFD0B0"/>
<path d="M104.707 95.9113L92.475 87.9854C91.7506 87.5149 90.7905 87.8866 90.549 88.7289L88.8105 94.8018C88.66 95.3304 88.8446 95.8997 89.2792 96.2307L101.463 105.493C102.202 106.053 103.261 105.664 103.483 104.752L105.269 97.3431C105.4 96.7884 105.173 96.2133 104.707 95.9113Z" fill="#313157"/>
<path d="M104.707 95.9113L92.475 87.9854C91.7506 87.5149 90.7905 87.8866 90.549 88.7289L88.8105 94.8018C88.66 95.3304 88.8446 95.8997 89.2792 96.2307L101.463 105.493C102.202 106.053 103.261 105.664 103.483 104.752L105.269 97.3431C105.4 96.7884 105.173 96.2133 104.707 95.9113Z" fill="#3C5261"/>
<g opacity="0.43">
<g opacity="0.43">
<path opacity="0.43" d="M104.799 95.9105L103.428 95.0427L101.979 100.914C101.755 101.819 100.682 102.204 99.9347 101.646L89.0728 93.5742L88.7106 94.8128C88.5582 95.3358 88.7451 95.899 89.1849 96.2238L101.516 105.391C102.264 105.945 103.339 105.56 103.56 104.658L105.369 97.3272C105.501 96.7784 105.271 96.2094 104.799 95.9105Z" fill="#1F191A"/>
</g>
</g>
<path d="M101.137 95.9034C102.903 96.7724 103.071 101.662 104.07 101.96C105.07 102.259 104.575 100.691 105.352 98.4264C106.13 96.1612 106.652 99.8399 107.176 103.521C107.594 106.447 106.839 107.244 106.949 108.588C106.969 108.837 106.897 109.074 106.704 109.225C105.793 109.94 104.626 110.882 103.581 111.412C103.364 111.522 103.071 111.42 102.924 111.218C99.2184 106.039 96.3488 101.957 96.2134 101.112C95.7755 98.4553 99.3712 95.0345 101.137 95.9034Z" fill="#FFD0B0"/>
<path d="M127.869 152.134C127.964 144.128 143.78 138.564 148.494 131.865C151.383 127.757 153.475 121.587 154.662 117.416C151.66 108.238 147.553 101.171 144.098 98.0574C136.252 90.9879 130.148 94.7912 130.148 94.7912C130.148 94.7912 121.178 99.9705 118.737 104.653C116.296 109.335 121.819 132.388 119.217 142.312C115.453 156.658 119.332 159.177 119.332 159.177C122.559 161.326 128.597 161.835 134.908 161.628C131.757 159.976 127.811 156.954 127.869 152.134Z" fill="#D34440"/>
<path d="M125.856 124.333C137.093 111.241 130.219 101.33 138.53 98.3987C147.005 95.4095 151.359 100.004 151.798 107.822C152.236 115.639 140.346 141.585 126.635 135.705C124.507 130.862 123.983 126.515 125.856 124.333Z" fill="#E55E4E"/>
<path d="M132.169 100.842C132.169 100.842 142.678 96.9652 148.12 99.5026C153.562 102.04 159.445 98.7272 155.214 93.7017C150.984 88.6762 146.788 91.4682 145.104 88.7572C143.42 86.0492 137.76 84.8196 134.601 87.788C131.442 90.7535 131.484 90.4931 125.387 95.1136C119.289 99.7369 122.582 100.547 124.241 101.913C125.899 103.278 132.169 100.842 132.169 100.842Z" fill="#E55E4E"/>
<path d="M125.9 100.271C125.9 100.271 143.757 97.2621 144.353 93.686C144.95 90.11 138.337 91.6884 138.948 89.6388C139.559 87.5891 136.656 88.3581 135.148 89.3583C133.638 90.3615 122.452 96.8226 123.015 98.8C123.58 100.78 125.9 100.271 125.9 100.271Z" fill="#D34440"/>
<path d="M124.42 89.4046L125.46 98.2641C125.46 98.2641 130.019 101.657 135.546 95.4421L132.713 84.9238L124.42 89.4046Z" fill="#FFD4D5"/>
<path d="M124.42 89.4046L125.46 98.2641C125.46 98.2641 130.019 101.657 135.546 95.4421L132.713 84.9238L124.42 89.4046Z" fill="#FFD0B0"/>
<path d="M127.634 92.7014C129.123 91.0595 131.905 89.769 133.835 89.0143L132.719 84.9238L124.42 89.3513L125.46 98.1054C125.46 98.1054 126.234 98.6614 127.518 98.9034C126.793 96.9158 126.231 94.2454 127.634 92.7014Z" fill="#E8B795"/>
<path d="M133.716 82.4442C133.716 82.4442 137.738 78.3499 137.213 75.5634C136.69 72.7768 134.088 73.2407 134.088 73.2407C134.088 73.2407 134.105 70.9935 130.205 69.5321C126.305 68.0707 122.521 69.6858 119.992 70.7905C117.462 71.8982 116.092 69.3291 116.092 69.3291C116.092 69.3291 115.374 71.9968 116.789 73.2233C116.789 73.2233 114.918 74.708 113.034 73.5858C113.034 73.5858 112.328 77.7874 118.58 77.5728C124.833 77.3611 126.276 81.6497 126.276 81.6497L130.539 85.7817L133.716 82.4442Z" fill="#009BF4"/>
<path d="M120.178 91.7718C120.178 91.7718 129.659 90.6908 131.095 88.4217C132.534 86.1555 132.477 86.5082 133.094 86.2509C133.71 85.9937 136.931 82.0568 134.864 80.6288C132.797 79.2009 131.732 81.892 131.732 81.892L131.486 83.3748L130.15 83.4182C130.15 83.4182 127.983 80.9873 127.898 79.8975C127.812 78.8078 128.517 76.1456 128.517 76.1456C128.517 76.1456 125.285 74.79 122.356 75.3681C119.424 75.9462 118.462 76.4116 118.462 76.4116C118.462 76.4116 119.735 82.0972 118.856 85.2681C117.982 88.4419 117.434 91.4423 120.178 91.7718Z" fill="#FFD4D5"/>
<path d="M120.178 91.7718C120.178 91.7718 129.659 90.6908 131.095 88.4217C132.534 86.1555 132.477 86.5082 133.094 86.2509C133.71 85.9937 136.931 82.0568 134.864 80.6288C132.797 79.2009 131.732 81.892 131.732 81.892L131.486 83.3748L130.15 83.4182C130.15 83.4182 127.983 80.9873 127.898 79.8975C127.812 78.8078 128.517 76.1456 128.517 76.1456C128.517 76.1456 125.285 74.79 122.356 75.3681C119.424 75.9462 118.462 76.4116 118.462 76.4116C118.462 76.4116 119.735 82.0972 118.856 85.2681C117.982 88.4419 117.434 91.4423 120.178 91.7718Z" fill="#FFD0B0"/>
<path d="M133.836 85.4951C134.338 84.9669 134.877 84.2429 135.262 83.498C134.984 83.774 134.586 84.3289 133.836 85.4951Z" fill="#E8B795"/>
<path d="M122.734 89.9231C119.993 89.6146 120.628 86.0876 121.6 82.3502C122.107 80.4036 122.047 77.6784 121.873 75.5098C119.34 76.0404 118.465 76.4499 118.465 76.4499C118.465 76.4499 119.736 82.1224 118.859 85.2859C117.981 88.4466 117.437 91.44 120.172 91.7717C120.172 91.7717 129.636 90.6931 131.069 88.4322C131.397 87.9131 131.642 87.5469 131.839 87.2642C128.584 88.9715 122.734 89.9231 122.734 89.9231Z" fill="#E8B795"/>
<path d="M92.4468 90.8773C92.3652 91.4256 92.0504 91.8235 91.7468 91.7671C91.4432 91.7107 91.2633 91.2188 91.3448 90.6705C91.4263 90.1222 91.7412 89.7243 92.0448 89.7807C92.3484 89.8371 92.5283 90.329 92.4468 90.8773Z" fill="white"/>
<path d="M91.3179 92.9773C91.2789 93.2908 91.1251 93.5165 90.9714 93.482C90.8176 93.4475 90.7258 93.1654 90.7648 92.8519C90.8038 92.5385 90.9576 92.3127 91.1114 92.3472C91.2628 92.3817 91.3569 92.6638 91.3179 92.9773Z" fill="white"/>
<path d="M127.367 117.161C127.265 117.144 127.175 117.075 127.148 116.972C124.615 108.165 129.438 100.811 130.054 100.63C130.198 100.584 130.354 100.665 130.399 100.805C130.439 100.923 130.384 101.049 130.276 101.109C129.675 101.642 125.27 108.446 127.68 116.834C127.722 116.975 127.635 117.118 127.488 117.158C127.449 117.164 127.407 117.167 127.367 117.161Z" fill="#0B2739"/>
<path d="M120.235 116.305C120.132 116.287 120.042 116.218 120.015 116.113C117.482 107.154 122.305 99.6734 122.921 99.4897C123.065 99.4431 123.222 99.5247 123.267 99.6676C123.306 99.7872 123.252 99.9155 123.143 99.9767C122.542 100.519 118.137 107.44 120.547 115.973C120.589 116.115 120.502 116.261 120.355 116.302C120.316 116.311 120.274 116.311 120.235 116.305Z" fill="#0B2739"/>
<path d="M106.672 113.135C106.672 113.135 109.789 109.878 111.198 110.369C112.606 110.86 126.907 118.025 129.805 121.605C132.705 125.185 136.742 131.732 129.373 135.283C122.005 138.834 104.579 119.12 104.737 116.411C104.893 113.701 106.672 113.135 106.672 113.135Z" fill="#E55E4E"/>
<path d="M103.594 113.439L108.502 108.889L111.297 110.234C108.364 111.912 106.1 113.875 104.947 116.306L103.594 113.439Z" fill="white"/>
<path d="M212.126 82.4362H195.068C194.658 82.4362 194.325 82.1168 194.325 81.723C194.325 81.3292 194.658 81.0098 195.068 81.0098H212.126C212.537 81.0098 212.869 81.3292 212.869 81.723C212.869 82.1168 212.537 82.4362 212.126 82.4362Z" fill="#86888C"/>
<path d="M212.127 86.1454H185.37C184.959 86.1454 184.626 85.762 184.626 85.2895C184.626 84.8169 184.959 84.4336 185.37 84.4336H212.127C212.537 84.4336 212.87 84.8169 212.87 85.2895C212.87 85.762 212.537 86.1454 212.127 86.1454Z" fill="#86888C"/>
<path d="M212.127 89.5692H185.37C184.959 89.5692 184.626 89.1859 184.626 88.7133C184.626 88.2408 184.959 87.8574 185.37 87.8574H212.127C212.537 87.8574 212.87 88.2408 212.87 88.7133C212.87 89.1859 212.537 89.5692 212.127 89.5692Z" fill="#86888C"/>
<path d="M216.634 100.48C215.947 101.149 214.834 101.149 214.149 100.48L206.879 93.4117L209.364 90.9961L216.634 98.0646C217.321 98.7301 217.321 99.8119 216.634 100.48Z" fill="#009BF4"/>
<path d="M209.515 82.654C212.467 85.6066 212.467 90.393 209.515 93.3457C206.562 96.2983 201.776 96.2983 198.823 93.3457C195.87 90.393 195.87 85.6066 198.823 82.654C201.776 79.7013 206.562 79.7013 209.515 82.654Z" fill="#009BF4"/>
<path d="M207.535 84.1364C209.488 86.0892 209.488 89.2546 207.535 91.2073C205.583 93.1601 202.417 93.1601 200.465 91.2073C198.512 89.2546 198.512 86.0892 200.465 84.1364C202.417 82.1837 205.583 82.1837 207.535 84.1364Z" fill="#D3D4D3"/>
<g clip-path="url(#clip0_4731_54379)">
<path opacity="0.1" d="M64.9892 180.152C66.8684 180.017 70.3423 179.49 71.6937 179.314C71.7448 179.307 71.7515 179.337 71.7008 179.347C71.3248 179.415 70.9063 179.494 70.5032 179.576C70.2216 179.633 70.2497 179.804 70.5365 179.773C74.9712 179.283 81.8552 178.235 86.305 177.447C86.5288 177.407 86.5108 177.27 86.2848 177.288C84.6101 177.43 78.6105 178.333 75.5773 178.694C75.5114 178.702 75.5055 178.662 75.571 178.651C76.1376 178.556 77.6493 178.324 78.302 178.18C78.4651 178.145 78.4497 178.044 78.2828 178.06C75.5347 178.312 68.6913 179.31 64.9521 180.066C64.8276 180.091 64.8616 180.161 64.9892 180.152Z" fill="black"/>
<path d="M66.7598 179.774L76.6633 178.323C77.7343 178.167 78.4751 177.17 78.3179 176.097L74.9847 153.346C74.7989 152.078 73.6217 151.2 72.3558 151.386L63.1324 152.737C61.8541 152.924 60.9695 154.115 61.1571 155.395L64.4799 178.074C64.641 179.174 65.6618 179.935 66.7598 179.774Z" fill="#0B2739"/>
<path opacity="0.6" d="M66.7598 179.774L76.6633 178.323C77.7343 178.167 78.4751 177.17 78.3179 176.097L74.9847 153.346C74.7989 152.078 73.6217 151.2 72.3558 151.386L63.1324 152.737C61.8541 152.924 60.9695 154.115 61.1571 155.395L64.4799 178.074C64.641 179.174 65.6618 179.935 66.7598 179.774Z" fill="black"/>
<path d="M67.7364 179.632L77.6398 178.181C78.7109 178.024 79.4516 177.027 79.2945 175.954L75.9612 153.204C75.7754 151.936 74.5982 151.058 73.3324 151.243L64.1089 152.594C62.8307 152.782 61.9461 153.972 62.1337 155.253L65.4565 177.932C65.6176 179.032 66.6383 179.793 67.7364 179.632Z" fill="#019DF4"/>
<path opacity="0.15" d="M72.1065 169.75C69.9933 168.999 68.9319 166.673 68.6214 163.933C68.3504 161.545 67.7482 156.956 67.1092 155.204C66.8116 154.388 66.5057 153.486 65.9516 152.634L64.3042 152.875C63.0157 153.064 62.1287 154.288 62.3223 155.61L65.6818 178.54C66.1199 178.87 66.678 179.032 67.2558 178.947L77.1479 177.846C78.3145 177.675 79.1178 176.565 78.9425 175.369L77.8029 167.591C77.4629 167.915 77.1566 168.205 76.8889 168.448C75.3838 169.818 73.8345 170.363 72.1065 169.75Z" fill="white"/>
<path d="M77.6193 177.427L67.9252 178.848C66.612 179.04 65.8916 177.994 65.7305 176.895L65.8734 177.87C66.0346 178.97 67.002 179.739 68.0337 179.588L77.3418 178.224C78.3479 178.077 79.0369 177.088 78.8797 176.015L78.7367 175.039C78.8939 176.112 78.9697 177.23 77.6193 177.427Z" fill="#0B2739"/>
<path d="M73.3936 151.661C74.4275 151.51 75.3929 152.229 75.5447 153.265L78.8781 176.017C79.0012 176.857 78.4185 177.641 77.5795 177.764L67.6753 179.215C66.8086 179.342 66.0004 178.74 65.8732 177.871L62.5503 155.192C62.3968 154.144 63.1232 153.166 64.1695 153.013L73.3936 151.661V151.661ZM73.3324 151.243L64.1089 152.594C62.8307 152.782 61.9461 153.972 62.1337 155.253L65.4565 177.932C65.6176 179.032 66.6383 179.793 67.7364 179.632L77.6398 178.181C78.7109 178.024 79.4516 177.027 79.2945 175.954L75.9612 153.204C75.7754 151.936 74.5982 151.058 73.3324 151.243Z" fill="#0B2739"/>
<path d="M73.3322 151.243L64.4721 152.541C64.2934 152.567 64.1237 152.615 63.963 152.678L67.3066 153.541C69.0819 153.999 70.9672 153.555 72.3533 152.354L73.6618 151.219C73.553 151.219 73.4431 151.227 73.3322 151.243Z" fill="#0B2739"/>
<path d="M62.1703 159.865C62.2491 159.854 62.3039 159.78 62.2923 159.701L62.0697 158.181C62.0581 158.102 61.9845 158.048 61.9057 158.059C61.8269 158.071 61.7721 158.144 61.7837 158.223L62.0063 159.743C62.0179 159.822 62.0915 159.877 62.1703 159.865Z" fill="#019DF4"/>
<path d="M62.5375 162.373C62.6163 162.361 62.671 162.288 62.6595 162.209L62.4369 160.689C62.4253 160.61 62.3517 160.555 62.2729 160.567C62.1941 160.578 62.1393 160.652 62.1509 160.731L62.3735 162.251C62.3852 162.33 62.4587 162.384 62.5375 162.373Z" fill="#019DF4"/>
<path d="M69.3551 152.916C69.4434 152.903 69.5044 152.821 69.4915 152.732C69.4785 152.644 69.3965 152.583 69.3082 152.596C69.22 152.609 69.1589 152.691 69.1719 152.779C69.1848 152.868 69.2669 152.929 69.3551 152.916Z" fill="#019DF4"/>
</g>
<path d="M68.3973 158.477C68.1606 158.49 67.7325 158.636 67.5792 159.469C67.5019 159.86 67.508 160.264 67.5971 160.653C67.6699 160.981 67.7784 161.3 67.9206 161.603C67.9519 161.666 67.9906 161.725 68.0356 161.779C68.0769 161.824 68.1313 161.855 68.1909 161.866C68.2504 161.878 68.312 161.869 68.3666 161.843C68.4389 161.802 68.5145 161.708 68.477 161.505C68.4495 161.397 68.4162 161.291 68.3774 161.187C68.2763 160.948 68.2017 160.698 68.1553 160.442C68.1275 160.161 68.2356 160.122 68.3072 160.097C68.4279 160.062 68.539 160.194 68.6443 160.36C68.7731 160.559 68.9847 160.91 69.17 161.178C69.2604 161.33 69.3909 161.453 69.5464 161.533C69.702 161.613 69.8764 161.647 70.0498 161.631C70.4914 161.588 70.8132 161.398 70.9476 160.846C71.0256 160.494 71.1243 160.148 71.2433 159.808C71.3786 159.442 71.5848 159.24 71.766 159.288C71.9471 159.337 71.9852 159.496 72 159.738C72.0091 159.949 72.0066 160.16 71.9925 160.37C71.987 160.457 71.9871 160.544 71.9928 160.631C71.992 160.7 72.0156 160.767 72.0592 160.82C72.1028 160.872 72.1635 160.907 72.2304 160.918C72.3102 160.918 72.3873 160.889 72.4481 160.836C72.5088 160.783 72.5492 160.71 72.5623 160.63C72.5806 160.554 72.5924 160.476 72.5977 160.398C72.6287 160.086 72.6246 159.772 72.5855 159.462C72.5473 159.078 72.444 158.703 72.28 158.355C72.1298 158.047 71.9054 157.861 71.6321 157.858C71.4523 157.87 71.28 157.937 71.1373 158.048C70.9945 158.16 70.8875 158.313 70.8299 158.486C70.6812 158.862 70.5608 159.245 70.4954 159.441C70.4733 159.531 70.4263 159.612 70.3602 159.675C70.294 159.738 70.2115 159.781 70.1222 159.798C69.8946 159.836 69.6888 159.676 69.5302 159.443C69.3675 159.189 69.1835 158.949 68.9805 158.726C68.9085 158.642 68.8187 158.576 68.7179 158.533C68.6171 158.49 68.508 158.471 68.3989 158.477" fill="white"/>
<g filter="url(#filter0_f_4731_54379)">
<rect x="71.1807" y="152.451" width="12.4125" height="18.8151" rx="3" transform="rotate(13.1335 71.1807 152.451)" fill="#0B2739"/>
</g>
<g clip-path="url(#clip1_4731_54379)" filter="url(#filter1_d_4731_54379)">
<path opacity="0.1" d="M68.5176 169.625C70.32 170.174 73.7516 170.928 75.0763 171.249C75.1265 171.261 75.1218 171.291 75.071 171.282C74.6954 171.211 74.2766 171.134 73.8709 171.067C73.5877 171.019 73.5524 171.189 73.8314 171.262C78.1466 172.396 84.948 173.889 89.3844 174.749C89.6075 174.793 89.6401 174.658 89.4224 174.594C87.8084 174.125 81.8843 172.815 78.9237 172.064C78.8592 172.048 78.8682 172.008 78.9332 172.021C79.4962 172.136 80.9904 172.462 81.6511 172.562C81.8163 172.587 81.8378 172.488 81.6765 172.443C79.021 171.692 72.2751 170.168 68.5136 169.532C68.3885 169.511 68.3952 169.588 68.5176 169.625Z" fill="black"/>
<path d="M70.3054 169.908L80.07 172.107C81.126 172.345 82.1752 171.68 82.4134 170.623L87.4658 148.191C87.7474 146.941 86.9636 145.699 85.7155 145.418L76.6214 143.37C75.3611 143.086 74.1082 143.879 73.8239 145.142L68.7875 167.503C68.5432 168.587 69.2228 169.664 70.3054 169.908Z" fill="#0B2739"/>
<path opacity="0.6" d="M70.3054 169.908L80.07 172.107C81.126 172.345 82.1752 171.68 82.4134 170.623L87.4658 148.191C87.7474 146.941 86.9636 145.699 85.7155 145.418L76.6214 143.37C75.3611 143.086 74.1082 143.879 73.8239 145.142L68.7875 167.503C68.5432 168.587 69.2228 169.664 70.3054 169.908Z" fill="black"/>
<path d="M71.2683 170.125L81.0329 172.324C82.0889 172.562 83.1381 171.897 83.3763 170.839L88.4287 148.408C88.7103 147.158 87.9265 145.916 86.6784 145.635L77.5843 143.586C76.324 143.303 75.0711 144.096 74.7868 145.359L69.7503 167.72C69.5061 168.804 70.1857 169.881 71.2683 170.125Z" fill="#019DF4"/>
<path opacity="0.15" d="M78.8937 162.469C77.1905 161.01 77.0344 158.458 77.7277 155.789C78.3319 153.462 79.4164 148.963 79.4485 147.099C79.4634 146.23 79.5018 145.278 79.2903 144.284L77.666 143.918C76.3956 143.632 75.1283 144.457 74.8348 145.76L69.7426 168.368C70.0331 168.834 70.496 169.185 71.0657 169.313L80.6942 171.835C81.8445 172.094 82.9923 171.347 83.258 170.167L84.9854 162.498C84.5516 162.679 84.1617 162.839 83.8246 162.97C81.928 163.709 80.2864 163.662 78.8937 162.469Z" fill="white"/>
<path d="M81.2838 171.613L71.7257 169.46C70.4308 169.169 70.1337 167.934 70.3779 166.85L70.1613 167.812C69.917 168.896 70.5441 169.961 71.5613 170.19L80.7388 172.257C81.7308 172.481 82.7289 171.804 82.9672 170.747L83.1838 169.785C82.9456 170.842 82.6153 171.913 81.2838 171.613Z" fill="#0B2739"/>
<path d="M86.5856 146.047C87.6049 146.276 88.2479 147.294 88.0177 148.316L82.9652 170.748C82.7786 171.577 81.9534 172.1 81.1261 171.914L71.3608 169.714C70.5062 169.522 69.9681 168.669 70.1609 167.813L75.1975 145.451C75.4303 144.418 76.4592 143.766 77.4907 143.998L86.5856 146.047V146.047ZM86.6784 145.635L77.5843 143.586C76.324 143.303 75.0711 144.096 74.7868 145.359L69.7503 167.72C69.5061 168.804 70.1857 169.881 71.2683 170.125L81.0329 172.324C82.0889 172.562 83.1381 171.897 83.3763 170.839L88.4287 148.408C88.7103 147.158 87.9265 145.916 86.6784 145.635Z" fill="#0B2739"/>
<path d="M86.6783 145.635L77.9424 143.668C77.7661 143.628 77.5908 143.611 77.4182 143.613L80.2295 145.618C81.7222 146.682 83.6411 146.945 85.3659 146.321L86.9946 145.731C86.893 145.692 86.7876 145.66 86.6783 145.635Z" fill="#0B2739"/>
<path d="M73.1657 149.678C73.2434 149.695 73.321 149.646 73.3385 149.568L73.676 148.07C73.6935 147.992 73.6445 147.914 73.5668 147.897C73.4891 147.879 73.4115 147.929 73.394 148.006L73.0565 149.505C73.039 149.582 73.088 149.66 73.1657 149.678Z" fill="#019DF4"/>
<path d="M72.6091 152.15C72.6868 152.168 72.7644 152.119 72.7819 152.041L73.1193 150.543C73.1368 150.465 73.0878 150.387 73.0101 150.37C72.9324 150.352 72.8549 150.401 72.8373 150.479L72.4999 151.977C72.4822 152.056 72.5314 152.133 72.6091 152.15Z" fill="#019DF4"/>
<path d="M82.3658 145.769C82.4528 145.789 82.5392 145.734 82.5588 145.647C82.5785 145.56 82.5238 145.473 82.4368 145.453C82.3498 145.434 82.2634 145.489 82.2438 145.576C82.2241 145.663 82.2787 145.749 82.3658 145.769Z" fill="#019DF4"/>
</g>
<path d="M79.1486 151.586C78.9191 151.526 78.4667 151.536 78.0685 152.284C77.8764 152.633 77.7601 153.02 77.7273 153.417C77.6974 153.752 77.7042 154.089 77.7477 154.421C77.7586 154.491 77.7776 154.558 77.8043 154.623C77.83 154.679 77.8725 154.724 77.9258 154.753C77.9791 154.782 78.0403 154.793 78.1004 154.784C78.1815 154.768 78.282 154.701 78.3078 154.496C78.3142 154.385 78.3147 154.273 78.3093 154.162C78.2852 153.904 78.2898 153.643 78.3229 153.386C78.3816 153.109 78.4964 153.105 78.5721 153.103C78.6977 153.106 78.7639 153.265 78.8139 153.456C78.8765 153.684 78.9717 154.083 79.0673 154.394C79.1075 154.566 79.1946 154.723 79.3187 154.846C79.4427 154.97 79.5986 155.055 79.7687 155.092C80.2026 155.185 80.5667 155.101 80.862 154.616C81.0428 154.304 81.2419 154.004 81.4581 153.716C81.6978 153.408 81.9556 153.278 82.1135 153.379C82.2715 153.48 82.2597 153.643 82.2004 153.879C82.1452 154.082 82.0789 154.283 82.0019 154.479C81.9703 154.56 81.944 154.643 81.9232 154.727C81.9016 154.793 81.9038 154.864 81.9295 154.927C81.9551 154.99 82.0024 155.042 82.0627 155.073C82.139 155.097 82.2213 155.092 82.2951 155.06C82.369 155.028 82.4296 154.971 82.4663 154.899C82.5068 154.832 82.5417 154.761 82.5705 154.688C82.6942 154.4 82.7854 154.1 82.8422 153.792C82.922 153.415 82.9368 153.027 82.886 152.645C82.8359 152.306 82.6786 152.06 82.4189 151.975C82.2438 151.932 82.0596 151.943 81.8897 152.007C81.7197 152.07 81.5717 152.183 81.4641 152.331C81.2086 152.645 80.978 152.973 80.8563 153.14C80.8081 153.219 80.7387 153.282 80.6566 153.322C80.5744 153.362 80.4828 153.378 80.3926 153.367C80.1643 153.334 80.0164 153.12 79.9358 152.85C79.8577 152.558 79.7551 152.273 79.629 152C79.5857 151.898 79.5201 151.808 79.4371 151.736C79.3541 151.665 79.256 151.613 79.1501 151.586" fill="white"/>
<path d="M207.188 152.799H191.037C189.947 152.799 188.901 152.357 188.129 151.572C187.358 150.786 186.925 149.72 186.925 148.609V141.318C186.925 140.207 187.358 139.142 188.129 138.356C188.901 137.57 189.947 137.129 191.037 137.129H207.188C208.278 137.129 209.324 137.57 210.096 138.356C210.867 139.142 211.3 140.207 211.3 141.318V148.609C211.3 149.159 211.194 149.704 210.987 150.213C210.78 150.721 210.478 151.183 210.096 151.572C209.714 151.961 209.26 152.269 208.761 152.48C208.263 152.69 207.728 152.799 207.188 152.799" fill="white"/>
<path d="M209.799 156.28H188.426C188.305 156.28 188.187 156.263 188.089 156.23C187.99 156.198 187.916 156.153 187.876 156.1L186.958 154.899C186.927 154.858 186.917 154.815 186.93 154.772C186.943 154.729 186.978 154.688 187.032 154.653C187.086 154.618 187.158 154.589 187.241 154.569C187.324 154.549 187.416 154.539 187.509 154.539H210.716C210.81 154.539 210.902 154.549 210.985 154.569C211.068 154.589 211.139 154.618 211.193 154.653C211.247 154.689 211.282 154.729 211.295 154.772C211.307 154.815 211.298 154.858 211.267 154.899L210.349 156.1C210.309 156.153 210.235 156.198 210.136 156.23C210.038 156.263 209.92 156.28 209.799 156.28" fill="#86888C"/>
<path d="M210.43 152.799H187.796V154.54H210.43V152.799Z" fill="#313235"/>
<path d="M208.871 145.835H189.352C189.17 145.835 188.995 145.743 188.866 145.58C188.737 145.417 188.665 145.195 188.665 144.964C188.665 144.733 188.737 144.512 188.866 144.349C188.995 144.185 189.17 144.094 189.352 144.094H208.871C209.053 144.094 209.228 144.185 209.357 144.349C209.486 144.512 209.558 144.733 209.558 144.964C209.558 145.195 209.486 145.417 209.357 145.58C209.228 145.743 209.053 145.835 208.871 145.835" fill="#313235"/>
<path d="M200.082 145.01C200.082 145.102 200.055 145.193 200.003 145.27C199.952 145.347 199.879 145.407 199.794 145.443C199.708 145.478 199.614 145.487 199.523 145.469C199.433 145.452 199.349 145.407 199.284 145.342C199.218 145.276 199.174 145.193 199.156 145.102C199.137 145.011 199.147 144.917 199.182 144.832C199.217 144.746 199.277 144.673 199.354 144.622C199.431 144.57 199.522 144.543 199.614 144.543C199.738 144.543 199.857 144.592 199.945 144.68C200.032 144.767 200.082 144.886 200.082 145.01" fill="#019BF2"/>
<path d="M202.019 145.01C202.02 145.102 201.992 145.193 201.941 145.27C201.89 145.347 201.817 145.407 201.731 145.443C201.646 145.478 201.552 145.487 201.461 145.469C201.37 145.452 201.287 145.407 201.221 145.342C201.156 145.276 201.111 145.193 201.093 145.102C201.075 145.011 201.084 144.917 201.12 144.832C201.155 144.746 201.215 144.673 201.292 144.622C201.369 144.57 201.459 144.543 201.552 144.543C201.676 144.543 201.794 144.592 201.882 144.68C201.97 144.767 202.019 144.886 202.019 145.01" fill="#019BF2"/>
<path d="M198.146 145.01C198.146 145.102 198.119 145.193 198.068 145.27C198.017 145.347 197.943 145.407 197.858 145.443C197.772 145.478 197.678 145.487 197.588 145.469C197.497 145.451 197.413 145.407 197.348 145.341C197.282 145.276 197.238 145.192 197.22 145.102C197.202 145.011 197.211 144.917 197.247 144.831C197.282 144.746 197.342 144.673 197.419 144.621C197.496 144.57 197.587 144.543 197.679 144.543C197.803 144.543 197.922 144.592 198.01 144.68C198.097 144.767 198.146 144.886 198.146 145.01Z" fill="#019BF2"/>
<path d="M198.039 139.173C197.874 139.173 197.571 139.257 197.433 139.819C197.365 140.083 197.354 140.359 197.401 140.627C197.439 140.854 197.502 141.075 197.589 141.288C197.609 141.332 197.633 141.373 197.663 141.412C197.69 141.444 197.726 141.467 197.767 141.477C197.808 141.487 197.851 141.484 197.89 141.468C197.942 141.443 197.998 141.381 197.979 141.241C197.964 141.167 197.945 141.093 197.922 141.021C197.861 140.854 197.819 140.681 197.796 140.504C197.788 140.312 197.864 140.289 197.915 140.275C198 140.256 198.072 140.349 198.139 140.467C198.221 140.607 198.354 140.855 198.473 141.044C198.53 141.151 198.616 141.24 198.721 141.3C198.826 141.36 198.945 141.39 199.066 141.386C199.375 141.373 199.605 141.255 199.719 140.884C199.787 140.647 199.868 140.414 199.964 140.187C200.072 139.942 200.222 139.812 200.346 139.852C200.47 139.891 200.491 140.001 200.492 140.167C200.49 140.311 200.48 140.455 200.463 140.598C200.456 140.657 200.452 140.717 200.453 140.776C200.45 140.823 200.464 140.869 200.492 140.907C200.52 140.945 200.561 140.971 200.607 140.981C200.663 140.983 200.717 140.966 200.761 140.932C200.806 140.899 200.836 140.851 200.848 140.796C200.864 140.745 200.875 140.692 200.882 140.639C200.915 140.428 200.924 140.214 200.909 140C200.897 139.737 200.839 139.478 200.739 139.234C200.646 139.019 200.497 138.883 200.308 138.871C200.182 138.873 200.06 138.912 199.957 138.982C199.854 139.053 199.773 139.153 199.727 139.27C199.609 139.521 199.511 139.777 199.459 139.909C199.44 139.969 199.404 140.023 199.356 140.063C199.308 140.104 199.249 140.13 199.186 140.138C199.027 140.155 198.89 140.039 198.788 139.874C198.685 139.694 198.567 139.524 198.434 139.365C198.387 139.305 198.327 139.256 198.259 139.223C198.191 139.19 198.116 139.173 198.04 139.173" fill="#009BF4"/>
<defs>
<filter id="filter0_f_4731_54379" x="62.5078" y="148.053" width="25.1582" height="29.9395" filterUnits="userSpaceOnUse" color-interpolation-filters="sRGB">
<feFlood flood-opacity="0" result="BackgroundImageFix"/>
<feBlend mode="normal" in="SourceGraphic" in2="BackgroundImageFix" result="shape"/>
<feGaussianBlur stdDeviation="2.5" result="effect1_foregroundBlur_4731_54379"/>
</filter>
<filter id="filter1_d_4731_54379" x="60.6074" y="136.66" width="42.6484" height="48.4375" filterUnits="userSpaceOnUse" color-interpolation-filters="sRGB">
<feFlood flood-opacity="0" result="BackgroundImageFix"/>
<feColorMatrix in="SourceAlpha" type="matrix" values="0 0 0 0 0 0 0 0 0 0 0 0 0 0 0 0 0 0 127 0" result="hardAlpha"/>
<feOffset dy="2"/>
<feGaussianBlur stdDeviation="2"/>
<feColorMatrix type="matrix" values="0 0 0 0 0 0 0 0 0 0 0 0 0 0 0 0 0 0 0.1 0"/>
<feBlend mode="normal" in2="BackgroundImageFix" result="effect1_dropShadow_4731_54379"/>
<feBlend mode="normal" in="SourceGraphic" in2="effect1_dropShadow_4731_54379" result="shape"/>
</filter>
<clipPath id="clip0_4731_54379">
<rect width="27.5789" height="35.2398" fill="white" transform="translate(57.4561 149.873) rotate(-8.33523)"/>
</clipPath>
<clipPath id="clip1_4731_54379">
<rect width="27.5789" height="35.2398" fill="white" transform="translate(72.3506 138.66) rotate(12.6931)"/>
</clipPath>
</defs>
</svg>
