<svg width="123" height="33" viewBox="0 0 123 33" fill="none" xmlns="http://www.w3.org/2000/svg">
<path d="M8.68254 4.35423C6.73599 4.39128 3.13953 5.33603 1.4896 12.0419C0.766598 14.9688 0.48852 18.0069 1.11883 21.6377C1.67498 24.9721 2.67606 27.862 3.36199 29.4551C3.60299 30.0108 3.95522 30.5666 4.2333 30.9185C5.03045 31.9374 6.36522 31.8633 6.92138 31.5854C7.53315 31.289 8.23761 30.5666 7.97807 28.8994C7.8483 28.1028 7.49607 26.9358 7.31069 26.2874C6.69892 24.2867 5.88322 21.8785 5.80907 20.1743C5.71638 17.8772 6.62476 17.5808 7.21799 17.4511C8.23761 17.2288 9.07184 18.3403 9.88754 19.7297C10.8515 21.3969 12.5015 24.3238 13.8362 26.5653C15.0412 28.5844 17.2844 30.7703 20.8809 30.6222C24.5515 30.474 27.2396 29.0661 28.63 24.6757C29.6681 21.3784 30.3726 18.9331 31.522 16.4138C32.8382 13.5239 34.5808 11.9678 36.0639 12.4495C37.4357 12.8941 37.7694 14.2279 37.788 16.1915C37.8065 17.9328 37.6026 19.8408 37.4357 21.2487C37.3801 21.7674 37.2689 22.7862 37.3245 23.3605C37.3987 24.4905 37.8992 25.602 39.1598 25.7872C40.5131 25.9725 41.5884 24.898 42.0148 23.6013C42.1816 23.0826 42.3299 22.3046 42.4041 21.7489C42.7934 18.9331 42.9046 17.0436 42.7192 14.1723C42.5153 10.8193 41.8479 7.74423 40.6985 5.09521C39.6233 2.53881 37.8621 0.908644 35.6004 0.778972C33.0977 0.61225 30.2243 2.27947 28.7041 5.50275C27.3137 8.46669 26.2014 11.5233 25.534 13.0793C24.8481 14.6539 23.847 15.6357 22.2898 15.8024C20.3989 16.0062 18.7675 14.6354 17.581 12.6718C16.5429 10.949 14.4851 7.70718 13.3728 6.61423C12.3346 5.59538 11.1482 4.31718 8.68254 4.35423Z" fill="#019DF4"/>
<path d="M50.3389 9.89062H57.5318L57.3835 11.1688H51.9703V15.4295H56.3639V16.7447H51.9703V21.1536H57.643V22.4318H50.3389V9.89062V9.89062Z" fill="#019DF4"/>
<path d="M59.6638 13.4468H60.9244L60.9986 14.1137C61.944 13.5209 62.9081 13.1875 63.9091 13.1875C65.04 13.1875 65.8371 13.5209 66.3562 14.2064C67.4685 13.5209 68.5808 13.1875 69.5819 13.1875C70.5644 13.1875 71.3245 13.4468 71.8436 13.9841C72.3441 14.4842 72.6037 15.2067 72.6037 16.3367V22.4498H71.0835V16.5219C71.0835 15.7439 70.9538 15.3178 70.6386 15.0029C70.3234 14.688 69.8414 14.5398 69.2297 14.5398C68.4881 14.5398 67.5983 14.7621 66.8011 15.1511C66.8753 15.4846 66.9309 15.8921 66.9309 16.3367V22.4498H65.4107V16.5219C65.4107 15.7439 65.281 15.3178 64.9658 15.0029C64.6507 14.688 64.1687 14.5398 63.5569 14.5398C62.7783 14.5398 61.944 14.7806 61.2025 15.1326V22.4498H59.6824V13.4468H59.6638Z" fill="#019DF4"/>
<path d="M74.958 13.4468H76.2186L76.2928 14.1137C77.2382 13.4839 78.2764 13.1875 79.1106 13.1875C81.4465 13.1875 82.5588 15.04 82.5588 17.9113C82.5588 21.2828 81.2055 22.7092 79.055 22.7092C78.1096 22.7092 77.1456 22.4498 76.4782 22.0238V26.5808H74.958V13.4468V13.4468ZM80.9645 17.8928C80.9645 15.5957 80.2786 14.5027 78.7769 14.5027C78.0725 14.5027 77.1826 14.7436 76.4782 15.1141V20.8937C77.0158 21.2087 77.8871 21.4495 78.6657 21.4495C80.2971 21.431 80.9645 20.4677 80.9645 17.8928Z" fill="#019DF4"/>
<path d="M84.4683 13.4468H85.7289L85.8216 14.2249C86.6929 13.5024 87.5827 13.1875 88.3799 13.1875C88.5467 13.1875 88.7692 13.206 88.9731 13.2431V14.5954C88.7692 14.5768 88.4355 14.5583 88.176 14.5583C87.3788 14.5583 86.6373 14.7621 85.9884 15.1696V22.4313H84.4683V13.4468Z" fill="#019DF4"/>
<path d="M90.7343 21.6162C89.9186 20.8011 89.5664 19.5785 89.5664 17.9669C89.5664 14.7621 91.1607 13.1875 93.4595 13.1875C95.9807 13.1875 97.1857 14.9659 97.1857 17.9298V18.2818C97.1857 18.43 97.1116 18.4855 96.9633 18.4855H91.1607C91.1607 19.4859 91.4203 20.2824 91.9579 20.7826C92.4399 21.2272 93.1073 21.468 94.2567 21.468C94.9055 21.468 95.7768 21.3754 96.4813 21.2272L96.6296 22.3572C95.851 22.5795 94.7943 22.7092 93.96 22.7092C92.5511 22.7092 91.4759 22.3572 90.7343 21.6162ZM95.6841 17.3555C95.6285 15.6328 94.9611 14.4101 93.4595 14.4101C91.9393 14.4101 91.1793 15.5216 91.1607 17.3555H95.6841Z" fill="#019DF4"/>
<path d="M98.8726 22.3212L98.9468 21.1541C99.6883 21.3579 100.671 21.4875 101.468 21.4875C102.933 21.4875 103.73 20.9874 103.73 20.0797C103.73 18.0605 98.7058 19.0979 98.7058 15.8005C98.7058 14.0592 100.059 13.207 101.969 13.207C102.877 13.207 103.878 13.3738 104.601 13.596L104.471 14.7075C103.656 14.5223 102.84 14.4111 102.098 14.4111C100.819 14.4111 100.133 14.8372 100.133 15.6708C100.133 17.69 105.157 16.7267 105.157 19.95C105.157 21.858 103.693 22.7102 101.524 22.7102C100.652 22.7102 99.5586 22.5434 98.8726 22.3212Z" fill="#019DF4"/>
<path d="M107.363 21.8385C106.918 21.3754 106.64 20.7456 106.64 19.8934C106.64 19.0413 106.937 18.3929 107.419 17.9483C108.105 17.3185 109.162 17.0777 110.478 17.0777H112.35V16.5034C112.35 15.7624 112.22 15.3178 111.887 14.9844C111.497 14.6139 110.904 14.4472 110.014 14.4472C109.328 14.4472 108.476 14.5213 107.586 14.6695L107.53 13.5024C108.383 13.2986 109.403 13.1875 110.274 13.1875C111.609 13.1875 112.517 13.4839 113.092 14.0211C113.666 14.5768 113.889 15.2808 113.889 16.4664V22.4498H112.665L112.573 21.8385C111.776 22.3572 110.83 22.7092 109.736 22.7092C108.754 22.7092 107.92 22.4128 107.363 21.8385ZM112.35 20.8937V18.2077H110.7C109.755 18.2077 109.125 18.3373 108.698 18.6708C108.383 18.9301 108.198 19.3192 108.198 19.8564C108.198 20.9308 108.884 21.468 110.051 21.468C110.793 21.468 111.683 21.2087 112.35 20.8937Z" fill="#019DF4"/>
<path d="M115.947 22.3212L116.021 21.1541C116.762 21.3579 117.745 21.4875 118.542 21.4875C120.007 21.4875 120.804 20.9874 120.804 20.0797C120.804 18.0605 115.78 19.0979 115.78 15.8005C115.78 14.0592 117.133 13.207 119.043 13.207C119.951 13.207 120.952 13.3738 121.675 13.596L121.545 14.7075C120.73 14.5223 119.914 14.4111 119.172 14.4111C117.893 14.4111 117.207 14.8372 117.207 15.6708C117.207 17.69 122.231 16.7267 122.231 19.95C122.231 21.858 120.767 22.7102 118.598 22.7102C117.726 22.7102 116.633 22.5434 115.947 22.3212Z" fill="#019DF4"/>
<path d="M8.68254 4.35423C6.73599 4.39128 3.13953 5.33603 1.4896 12.0419C0.766598 14.9688 0.48852 18.0069 1.11883 21.6377C1.67498 24.9721 2.67606 27.862 3.36199 29.4551C3.60299 30.0108 3.95522 30.5666 4.2333 30.9185C5.03045 31.9374 6.36522 31.8633 6.92138 31.5854C7.53315 31.289 8.23761 30.5666 7.97807 28.8994C7.8483 28.1028 7.49607 26.9358 7.31069 26.2874C6.69892 24.2867 5.88322 21.8785 5.80907 20.1743C5.71638 17.8772 6.62476 17.5808 7.21799 17.4511C8.23761 17.2288 9.07184 18.3403 9.88754 19.7297C10.8515 21.3969 12.5015 24.3238 13.8362 26.5653C15.0412 28.5844 17.2844 30.7703 20.8809 30.6222C24.5515 30.474 27.2396 29.0661 28.63 24.6757C29.6681 21.3784 30.3726 18.9331 31.522 16.4138C32.8382 13.5239 34.5808 11.9678 36.0639 12.4495C37.4357 12.8941 37.7694 14.2279 37.788 16.1915C37.8065 17.9328 37.6026 19.8408 37.4357 21.2487C37.3801 21.7674 37.2689 22.7862 37.3245 23.3605C37.3987 24.4905 37.8992 25.602 39.1598 25.7872C40.5131 25.9725 41.5884 24.898 42.0148 23.6013C42.1816 23.0826 42.3299 22.3046 42.4041 21.7489C42.7934 18.9331 42.9046 17.0436 42.7192 14.1723C42.5153 10.8193 41.8479 7.74423 40.6985 5.09521C39.6233 2.53881 37.8621 0.908644 35.6004 0.778972C33.0977 0.61225 30.2243 2.27947 28.7041 5.50275C27.3137 8.46669 26.2014 11.5233 25.534 13.0793C24.8481 14.6539 23.847 15.6357 22.2898 15.8024C20.3989 16.0062 18.7675 14.6354 17.581 12.6718C16.5429 10.949 14.4851 7.70718 13.3728 6.61423C12.3346 5.59538 11.1482 4.31718 8.68254 4.35423Z" fill="#019DF4"/>
<path d="M50.3389 9.89062H57.5318L57.3835 11.1688H51.9703V15.4295H56.3639V16.7447H51.9703V21.1536H57.643V22.4318H50.3389V9.89062V9.89062Z" fill="#019DF4"/>
<path d="M59.6638 13.4468H60.9244L60.9986 14.1137C61.944 13.5209 62.9081 13.1875 63.9091 13.1875C65.04 13.1875 65.8371 13.5209 66.3562 14.2064C67.4685 13.5209 68.5808 13.1875 69.5819 13.1875C70.5644 13.1875 71.3245 13.4468 71.8436 13.9841C72.3441 14.4842 72.6037 15.2067 72.6037 16.3367V22.4498H71.0835V16.5219C71.0835 15.7439 70.9538 15.3178 70.6386 15.0029C70.3234 14.688 69.8414 14.5398 69.2297 14.5398C68.4881 14.5398 67.5983 14.7621 66.8011 15.1511C66.8753 15.4846 66.9309 15.8921 66.9309 16.3367V22.4498H65.4107V16.5219C65.4107 15.7439 65.281 15.3178 64.9658 15.0029C64.6507 14.688 64.1687 14.5398 63.5569 14.5398C62.7783 14.5398 61.944 14.7806 61.2025 15.1326V22.4498H59.6824V13.4468H59.6638Z" fill="#019DF4"/>
<path d="M74.958 13.4468H76.2186L76.2928 14.1137C77.2382 13.4839 78.2764 13.1875 79.1106 13.1875C81.4465 13.1875 82.5588 15.04 82.5588 17.9113C82.5588 21.2828 81.2055 22.7092 79.055 22.7092C78.1096 22.7092 77.1456 22.4498 76.4782 22.0238V26.5808H74.958V13.4468V13.4468ZM80.9645 17.8928C80.9645 15.5957 80.2786 14.5027 78.7769 14.5027C78.0725 14.5027 77.1826 14.7436 76.4782 15.1141V20.8937C77.0158 21.2087 77.8871 21.4495 78.6657 21.4495C80.2971 21.431 80.9645 20.4677 80.9645 17.8928Z" fill="#019DF4"/>
<path d="M84.4683 13.4468H85.7289L85.8216 14.2249C86.6929 13.5024 87.5827 13.1875 88.3799 13.1875C88.5467 13.1875 88.7692 13.206 88.9731 13.2431V14.5954C88.7692 14.5768 88.4355 14.5583 88.176 14.5583C87.3788 14.5583 86.6373 14.7621 85.9884 15.1696V22.4313H84.4683V13.4468Z" fill="#019DF4"/>
<path d="M90.7343 21.6162C89.9186 20.8011 89.5664 19.5785 89.5664 17.9669C89.5664 14.7621 91.1607 13.1875 93.4595 13.1875C95.9807 13.1875 97.1857 14.9659 97.1857 17.9298V18.2818C97.1857 18.43 97.1116 18.4855 96.9633 18.4855H91.1607C91.1607 19.4859 91.4203 20.2824 91.9579 20.7826C92.4399 21.2272 93.1073 21.468 94.2567 21.468C94.9055 21.468 95.7768 21.3754 96.4813 21.2272L96.6296 22.3572C95.851 22.5795 94.7943 22.7092 93.96 22.7092C92.5511 22.7092 91.4759 22.3572 90.7343 21.6162ZM95.6841 17.3555C95.6285 15.6328 94.9611 14.4101 93.4595 14.4101C91.9393 14.4101 91.1793 15.5216 91.1607 17.3555H95.6841Z" fill="#019DF4"/>
<path d="M98.8726 22.3212L98.9468 21.1541C99.6883 21.3579 100.671 21.4875 101.468 21.4875C102.933 21.4875 103.73 20.9874 103.73 20.0797C103.73 18.0605 98.7058 19.0979 98.7058 15.8005C98.7058 14.0592 100.059 13.207 101.969 13.207C102.877 13.207 103.878 13.3738 104.601 13.596L104.471 14.7075C103.656 14.5223 102.84 14.4111 102.098 14.4111C100.819 14.4111 100.133 14.8372 100.133 15.6708C100.133 17.69 105.157 16.7267 105.157 19.95C105.157 21.858 103.693 22.7102 101.524 22.7102C100.652 22.7102 99.5586 22.5434 98.8726 22.3212Z" fill="#019DF4"/>
<path d="M107.363 21.8385C106.918 21.3754 106.64 20.7456 106.64 19.8934C106.64 19.0413 106.937 18.3929 107.419 17.9483C108.105 17.3185 109.162 17.0777 110.478 17.0777H112.35V16.5034C112.35 15.7624 112.22 15.3178 111.887 14.9844C111.497 14.6139 110.904 14.4472 110.014 14.4472C109.328 14.4472 108.476 14.5213 107.586 14.6695L107.53 13.5024C108.383 13.2986 109.403 13.1875 110.274 13.1875C111.609 13.1875 112.517 13.4839 113.092 14.0211C113.666 14.5768 113.889 15.2808 113.889 16.4664V22.4498H112.665L112.573 21.8385C111.776 22.3572 110.83 22.7092 109.736 22.7092C108.754 22.7092 107.92 22.4128 107.363 21.8385ZM112.35 20.8937V18.2077H110.7C109.755 18.2077 109.125 18.3373 108.698 18.6708C108.383 18.9301 108.198 19.3192 108.198 19.8564C108.198 20.9308 108.884 21.468 110.051 21.468C110.793 21.468 111.683 21.2087 112.35 20.8937Z" fill="#019DF4"/>
<path d="M115.947 22.3212L116.021 21.1541C116.762 21.3579 117.745 21.4875 118.542 21.4875C120.007 21.4875 120.804 20.9874 120.804 20.0797C120.804 18.0605 115.78 19.0979 115.78 15.8005C115.78 14.0592 117.133 13.207 119.043 13.207C119.951 13.207 120.952 13.3738 121.675 13.596L121.545 14.7075C120.73 14.5223 119.914 14.4111 119.172 14.4111C117.893 14.4111 117.207 14.8372 117.207 15.6708C117.207 17.69 122.231 16.7267 122.231 19.95C122.231 21.858 120.767 22.7102 118.598 22.7102C117.726 22.7102 116.633 22.5434 115.947 22.3212Z" fill="#019DF4"/>
</svg>
