<svg width="127" height="108" viewBox="0 0 127 108" fill="none" xmlns="http://www.w3.org/2000/svg">
<path d="M11.2894 62.4345C11.0765 48.7433 9.41441 33.473 33.3825 24.6661C57.3516 15.8602 82.1544 31.2615 90.4167 43.0378C98.6791 54.8152 109.096 49.4422 113.272 61.0834C117.449 72.7246 115.824 85.4615 75.8488 87.2275C35.8751 88.9957 11.6092 83.0389 11.2894 62.4345Z" fill="#019DF4"/>
<g opacity="0.89">
<g opacity="0.89">
<path opacity="0.89" d="M93.0234 36.6135C92.1907 36.6135 91.3319 36.585 90.4458 36.5269C83.6599 36.0857 75.2109 33.9375 65.3326 30.1437C53.2511 25.5032 37.3314 26.5398 26.1035 28.2267C13.9171 30.0561 4.48337 33.0255 4.39004 33.055C4.21597 33.1099 4.02196 33.0381 3.95485 32.8946C3.88879 32.751 3.97478 32.5906 4.14885 32.5346C4.24323 32.5051 13.7357 29.5177 25.9829 27.6778C33.1809 26.5968 39.9122 26.1165 45.9881 26.2506C53.6003 26.4195 60.2047 27.5585 65.6157 29.637C75.4186 33.4023 83.7879 35.5325 90.493 35.9696C95.9607 36.3263 100.357 35.5621 103.558 33.6989C107.074 31.6532 108.515 28.6141 109.104 26.4248C109.748 24.0349 109.548 22.1052 109.545 22.0862C109.528 21.9332 109.664 21.7981 109.85 21.7843C110.035 21.7706 110.198 21.8825 110.216 22.0356C110.226 22.1169 110.429 24.056 109.767 26.5261C109.378 27.9797 108.768 29.314 107.953 30.491C106.932 31.9678 105.585 33.1986 103.95 34.1507C101.142 35.789 97.4739 36.6135 93.0234 36.6135Z" fill="white"/>
</g>
</g>
<g opacity="0.89">
<g opacity="0.89">
<path opacity="0.89" d="M87.9741 48.0789C86.785 48.0789 85.5622 48.0345 84.307 47.9459C78.467 47.5321 71.7745 46.1439 64.4161 43.8195C51.7127 39.8072 36.8365 40.4585 26.5932 41.7104C15.4765 43.07 7.26548 45.4124 7.18369 45.4356C7.00856 45.4863 6.81666 45.4092 6.75479 45.2646C6.69397 45.12 6.78625 44.9606 6.96242 44.9099C7.04422 44.8867 15.3045 42.5296 26.481 41.1615C33.0477 40.3582 39.325 40.0468 45.1376 40.2378C52.4143 40.4764 58.9809 41.5067 64.6563 43.2991C78.143 47.5584 89.1528 48.5982 97.3816 46.3888C104.182 44.5626 107.575 41.0095 109.821 38.6576C111.028 37.394 111.825 36.5591 112.696 36.5263C113.066 36.5126 113.419 36.6488 113.742 36.9306C113.87 37.0425 113.864 37.2178 113.729 37.3244C113.595 37.4299 113.381 37.4257 113.253 37.3138C113.006 37.0974 112.834 37.0784 112.727 37.0816C112.162 37.1027 111.362 37.9408 110.349 39.0017C109.277 40.1259 107.806 41.665 105.769 43.1196C103.348 44.8477 100.672 46.0901 97.5903 46.9177C94.7139 47.6904 91.4913 48.0789 87.9741 48.0789Z" fill="white"/>
</g>
</g>
<g opacity="0.89">
<g opacity="0.89">
<path opacity="0.89" d="M81.8103 59.9136C80.92 59.9136 80.0223 59.8935 79.1173 59.8544C74.2568 59.6412 69.003 58.8474 63.5028 57.4962C50.0937 54.2017 36.2577 54.4635 27.0118 55.2636C16.9835 56.1313 10.0403 57.8013 9.97216 57.8182C9.79389 57.8615 9.60723 57.777 9.5548 57.6292C9.50237 57.4814 9.60409 57.3273 9.78236 57.284C9.85157 57.2672 16.8409 55.5845 26.9268 54.7115C32.8496 54.1985 38.6697 54.0602 44.2244 54.2999C51.1717 54.5996 57.7227 55.4959 63.6947 56.9631C86.9518 62.6771 98.7366 56.9515 106.535 53.164C108.91 52.0102 110.786 51.0993 112.505 50.7583C114.415 50.3783 115.958 50.772 117.36 51.9955C117.488 52.1074 117.481 52.2837 117.347 52.3892C117.212 52.4948 116.999 52.4905 116.871 52.3787C114.228 50.0732 111.461 51.4181 106.876 53.6454C102.966 55.5455 98.099 57.91 91.1443 59.1324C88.1766 59.6507 85.0475 59.9136 81.8103 59.9136Z" fill="white"/>
</g>
</g>
<g opacity="0.89">
<g opacity="0.89">
<path opacity="0.89" d="M74.6101 70.2379C70.6787 70.2379 66.719 69.8938 62.6649 69.2045C48.4808 66.7914 35.6851 66.6563 27.4479 66.9677C18.5196 67.3055 12.8747 68.2259 12.8181 68.2344C12.6356 68.264 12.4584 68.1668 12.4217 68.0159C12.385 67.8649 12.5035 67.7182 12.686 67.6886C12.7426 67.6791 18.4263 66.7523 27.4007 66.4114C32.6691 66.2119 38.0278 66.2499 43.3277 66.5254C49.9531 66.8695 56.5051 67.5873 62.8012 68.6587C79.5786 71.5131 91.2911 67.8459 100.701 64.8987C104.96 63.5644 108.64 62.4127 111.95 62.1847C115.599 61.9335 118.491 62.855 121.049 65.0866C121.177 65.1985 121.171 65.3737 121.036 65.4803C120.901 65.5859 120.688 65.5817 120.56 65.4698C118.154 63.3712 115.436 62.5035 112.005 62.74C108.789 62.9617 105.151 64.1006 100.939 65.4202C96.2805 66.879 91.0006 68.5321 84.7097 69.4779C81.3372 69.9835 77.9836 70.2379 74.6101 70.2379Z" fill="white"/>
</g>
</g>
<g opacity="0.89">
<g opacity="0.89">
<path opacity="0.89" d="M66.6832 85.0468C65.0441 85.0468 63.3789 84.9824 61.6885 84.842C32.9857 82.4585 15.6578 82.5809 15.4858 82.582C15.4847 82.582 15.4837 82.582 15.4826 82.582C15.2981 82.582 15.1481 82.4595 15.146 82.3065C15.1439 82.1523 15.2928 82.0267 15.4795 82.0257C15.6515 82.0236 33.013 81.9022 61.7566 84.2889C73.2331 85.2421 83.5791 82.6274 92.7066 80.3209C98.8916 78.7575 104.733 77.2818 110.026 77.1657C112.868 77.1034 115.367 77.4296 117.667 78.1622C120.211 78.9729 122.477 80.2649 124.594 82.1122C124.722 82.2241 124.717 82.3994 124.582 82.506C124.446 82.6115 124.233 82.6073 124.105 82.4954C115.638 75.1073 105.605 77.6428 92.9027 80.8529C85.0514 82.8364 76.3057 85.0468 66.6832 85.0468Z" fill="white"/>
</g>
</g>
<path d="M83.4715 95.6353C83.4715 97.7423 69.4825 99.4502 52.2268 99.4502C34.9702 99.4502 20.9822 97.7423 20.9822 95.6353C20.9822 93.5283 34.9712 91.8203 52.2268 91.8203C69.4825 91.8193 83.4715 93.5283 83.4715 95.6353Z" fill="#019DF4"/>
<path d="M29.2937 63.5615C29.2937 63.5615 31.5326 57.2099 27.4282 53.5902C27.0213 53.2493 26.3764 53.3855 26.1729 53.9312C25.4598 55.9812 24.5779 60.5562 29.2937 63.5615Z" fill="#32AE00"/>
<path d="M33.3646 78.2789C33.2964 78.2789 33.2629 78.2451 33.2293 78.1765L27.5299 57.7896C27.4963 57.721 27.5635 57.6534 27.597 57.6186C27.6652 57.5848 27.7333 57.6524 27.7669 57.6872L33.4663 78.0741C33.4999 78.1765 33.4663 78.2113 33.3646 78.2789C33.3982 78.2789 33.3982 78.2789 33.3646 78.2789Z" fill="#D1D840"/>
<path d="M30.2094 69.0941C30.2094 69.0941 29.7008 63.4255 24.0695 63.1521C23.5263 63.1172 23.1194 63.6303 23.2893 64.176C23.7297 65.8164 25.2566 68.9917 30.2094 69.0941Z" fill="#32AE00"/>
<path d="M31.0911 70.0142C31.0576 70.0142 31.023 70.0142 31.023 69.9804L25.7985 65.6092C25.7304 65.5406 25.7304 65.473 25.765 65.4044C25.8332 65.3358 25.9003 65.3358 25.9684 65.3706L31.1928 69.7419C31.261 69.8105 31.261 69.878 31.2264 69.9466C31.1257 69.9804 31.1257 70.0142 31.0911 70.0142Z" fill="#D1D840"/>
<path d="M30.2437 63.9025C30.2437 63.9025 28.31 61.3068 30.2102 57.7906C30.5489 57.1762 31.4654 57.2437 31.6688 57.9267C32.1093 59.4637 32.3463 61.956 30.2437 63.9025Z" fill="#81C600"/>
<path d="M30.0059 66.2584C29.9377 66.2584 29.8706 66.1898 29.8706 66.0874L30.6508 58.5747C30.6508 58.506 30.719 58.4374 30.7871 58.4723C30.8553 58.4723 30.9224 58.5409 30.8888 58.6084L30.1087 66.1212C30.1412 66.1898 30.074 66.2584 30.0059 66.2584Z" fill="#32AE00"/>
<path d="M41.3021 91.4945C41.3021 91.4945 37.9779 82.1038 31.0232 75.6499C25.7653 70.7666 18.539 68.6839 15.4182 67.9661C14.7733 67.7951 14.1965 68.4781 14.5027 69.1273C15.9278 72.1664 19.5572 79.2347 24.4765 83.5035C30.8879 89.1046 41.3021 91.4945 41.3021 91.4945Z" fill="#217706"/>
<path d="M41.3019 91.6318C41.2683 91.6318 41.2337 91.6318 41.2337 91.5981L19.6933 72.9529C19.6251 72.8843 19.6251 72.8168 19.6587 72.7481C19.7268 72.6795 19.795 72.6795 19.8621 72.7144L41.4036 91.3595C41.4718 91.4281 41.4718 91.4967 41.4372 91.5643C41.3365 91.5981 41.3019 91.6318 41.3019 91.6318Z" fill="#D1D840"/>
<path d="M22.9839 78.8937C22.9157 78.8937 22.8486 78.825 22.8486 78.7564C22.8486 78.6878 22.9168 78.6202 22.9839 78.6202L26.2064 78.5516L24.6125 73.6684C24.5789 73.5998 24.646 73.5322 24.6806 73.4974C24.7488 73.4636 24.8159 73.5322 24.8505 73.566L26.5472 78.654C26.5472 78.7226 26.5472 78.7226 26.5137 78.7564C26.4801 78.7913 26.4455 78.825 26.412 78.825L22.9839 78.8937ZM32.211 83.8117L27.7668 83.6407C27.6987 83.6407 27.6315 83.5721 27.6315 83.5045C27.6315 83.4359 27.6997 83.3684 27.7668 83.3684L32.211 83.5383C32.2792 83.5383 32.3463 83.6069 32.3463 83.6745C32.3463 83.7431 32.2446 83.8117 32.211 83.8117ZM34.8232 86.1341C34.7551 86.1341 34.7215 86.1003 34.6879 86.0317L33.6361 82.3096C33.6015 82.241 33.6697 82.1734 33.7043 82.1386C33.7725 82.1038 33.8396 82.1724 33.8742 82.2072L34.926 85.9293C34.9585 86.0306 34.8903 86.0654 34.8232 86.1341C34.8232 86.1341 34.8568 86.1341 34.8232 86.1341Z" fill="#D1D840"/>
<path d="M40.5898 92.4513C40.5898 92.4513 35.0267 87.1585 27.9703 85.1433C22.8822 83.7098 17.5215 84.6314 14.9104 85.2457C14.2319 85.4167 14.0285 86.3045 14.6052 86.7141C16.8105 88.422 21.5253 91.6997 26.2065 92.8608C32.618 94.4664 40.5898 92.4513 40.5898 92.4513Z" fill="#32AE00"/>
<path d="M40.5899 92.5871L19.1847 87.3281C19.1166 87.2943 19.083 87.2595 19.083 87.1571C19.1166 87.0885 19.1512 87.0547 19.2529 87.0547L40.6245 92.3137C40.6926 92.3485 40.7262 92.3823 40.7262 92.4847C40.7251 92.5185 40.658 92.5871 40.5899 92.5871Z" fill="#D1D840"/>
<path d="M23.5597 90.2657C23.4916 90.2657 23.4916 90.2319 23.458 90.1971C23.4245 90.1622 23.458 90.0598 23.5262 89.9923L25.6969 88.7973L22.9159 86.0316C22.8477 85.963 22.8477 85.8955 22.9159 85.8269C22.984 85.7582 23.0511 85.7582 23.1193 85.8269L26.0367 88.7298C26.0702 88.7635 26.1048 88.7984 26.0702 88.8322C26.0702 88.9008 26.0367 88.9008 26.0021 88.9346L23.695 90.1981C23.5943 90.2657 23.5597 90.2657 23.5597 90.2657ZM28.479 91.8702C28.4108 91.8702 28.3773 91.8354 28.3437 91.8016C28.3102 91.733 28.3437 91.6654 28.4119 91.5968L31.5327 90.1284C31.6008 90.0947 31.668 90.1284 31.7361 90.1971C31.7697 90.2657 31.7361 90.3332 31.668 90.4018L28.5472 91.8702C28.5472 91.8364 28.5136 91.8702 28.479 91.8702ZM34.212 91.0848C34.1784 91.0848 34.1438 91.051 34.1103 91.0162L32.1084 88.8311C32.0402 88.7625 32.0402 88.6939 32.1084 88.6263C32.1765 88.5577 32.2447 88.5577 32.3118 88.6263L34.3137 90.8114C34.3819 90.88 34.3819 90.9476 34.3137 91.0162C34.3148 91.0848 34.2802 91.0848 34.212 91.0848Z" fill="#D1D840"/>
<path d="M37.4008 84.4952C37.4008 84.4952 38.3844 79.2025 36.8922 74.2855C35.9085 71.0754 33.6697 68.4121 32.2792 66.9775C31.8041 66.4993 30.9222 66.7727 30.8886 67.4895C30.7523 69.5722 30.7188 73.1918 31.737 76.1285C33.1946 80.5336 37.4008 84.4952 37.4008 84.4952Z" fill="#32AE00"/>
<path d="M37.4011 84.631C37.3329 84.631 37.2993 84.5972 37.2658 84.5624L32.2448 69.9128C32.2113 69.8441 32.2448 69.7755 32.313 69.7417C32.3812 69.708 32.4493 69.7417 32.4829 69.8104L37.5038 84.46C37.5374 84.5286 37.5028 84.5972 37.4011 84.631Z" fill="#D1D840"/>
<path d="M33.9068 74.5584C33.8732 74.5584 33.8386 74.5584 33.8386 74.5246L32.2447 73.6031C32.1765 73.5693 32.1765 73.5007 32.1765 73.3983C32.2111 73.3307 32.2782 73.3307 32.38 73.3307L33.8386 74.1499L34.3818 71.5204C34.4164 71.4518 34.45 71.418 34.5517 71.418C34.6199 71.4517 34.6534 71.4866 34.6534 71.589L34.0431 74.4233C34.0431 74.4919 34.0096 74.4919 33.975 74.5257H33.9068V74.5584V74.5584ZM35.2637 78.4852C35.2302 78.4852 35.1956 78.4852 35.1956 78.4515L33.1602 77.1541C33.092 77.1203 33.092 77.0179 33.092 76.9493C33.1266 76.8807 33.2273 76.8807 33.2954 76.8807L35.3309 78.1781C35.399 78.2118 35.399 78.3142 35.399 78.3828C35.3319 78.4852 35.2984 78.4852 35.2637 78.4852ZM35.8751 80.2956C35.7734 80.2618 35.7398 80.227 35.7398 80.1246L36.2484 78.1094C36.282 78.0408 36.3166 78.007 36.4183 78.007C36.4865 78.0408 36.52 78.0757 36.52 78.1781L36.0114 80.1932C35.9768 80.2608 35.9087 80.2956 35.8751 80.2956Z" fill="#D1D840"/>
<path d="M68.9497 9.43555H41.9804C38.0112 9.43555 34.8223 12.6456 34.8223 16.6411V88.0791C34.8223 92.0746 38.0112 95.2847 41.9804 95.2847H68.9497C72.9189 95.2847 76.1078 92.0746 76.1078 88.0791V16.6411C76.1078 12.6805 72.8853 9.43555 68.9497 9.43555Z" fill="#00283B"/>
<path d="M70.68 9.40234H43.6771C39.7079 9.40234 36.52 12.6124 36.52 16.6079V88.0459C36.52 92.0414 39.709 95.2515 43.6771 95.2515H70.6464C74.6156 95.2515 77.8035 92.0414 77.8035 88.0459V16.6079C77.8381 12.6124 74.6156 9.40234 70.68 9.40234Z" fill="#00283B"/>
<path d="M70.5783 11.4512H67.8644C67.4239 11.4512 67.0842 11.7921 67.0842 12.2365V13.3977C67.0842 14.2855 66.3721 15.0022 65.4892 15.0022H48.9351C48.0532 15.0022 47.3411 14.2855 47.3411 13.3977V12.2365C47.3411 11.7921 47.0024 11.4512 46.5609 11.4512H43.847C40.8615 11.4512 38.4192 13.9097 38.4192 16.915V87.7048C38.4192 90.7102 40.8615 93.1687 43.847 93.1687H70.6129C73.5984 93.1687 76.0407 90.7102 76.0407 87.7048V16.915C76.0061 13.9097 73.5638 11.4512 70.5783 11.4512Z" fill="#C0DCE7"/>
<path d="M63.4883 91.4952H50.9023C50.7324 91.4952 50.5972 91.3591 50.5972 91.1881C50.5972 91.017 50.7324 90.8809 50.9023 90.8809H63.4883C63.6582 90.8809 63.7935 91.017 63.7935 91.1881C63.7935 91.3591 63.6582 91.4952 63.4883 91.4952Z" fill="#943230"/>
<path d="M60.7407 12.9531H61.3175M55.0413 12.9531H59.7225H55.0413Z" stroke="#9A282B" stroke-width="2.86082" stroke-miterlimit="10" stroke-linecap="round" stroke-linejoin="round"/>
<path d="M48.7537 79.2294C48.5492 79.1893 48.395 79.0077 48.395 78.7903C48.395 78.5433 48.5943 78.3427 48.8397 78.3438L66.6269 78.3459C66.8723 78.3448 67.0716 78.5464 67.0716 78.7934C67.0716 79.0404 66.8723 79.241 66.6269 79.2399L48.8397 79.2378C48.8092 79.2378 48.7809 79.2347 48.7537 79.2294Z" fill="white"/>
<path d="M53.2031 81.8427C52.9986 81.8026 52.8445 81.621 52.8445 81.4036C52.8445 81.1565 53.0437 80.956 53.2891 80.957L62.2625 80.9581C62.5068 80.957 62.7071 81.1587 62.7071 81.4057C62.7071 81.6527 62.5078 81.8532 62.2625 81.8522L53.2891 81.8511C53.2597 81.8511 53.2314 81.848 53.2031 81.8427Z" fill="white"/>
<path d="M69.0462 72.0653L45.1683 72.0621C42.9724 72.0621 41.1929 70.4016 41.1929 68.3538C41.1929 66.3059 42.9735 64.6465 45.1694 64.6465L69.0472 64.6507C71.2431 64.6507 73.0227 66.3112 73.0227 68.359C73.0216 70.4059 71.2421 72.0653 69.0462 72.0653Z" fill="#019AF1"/>
<path d="M47.5613 18.9316C47.3568 18.8915 47.2026 18.71 47.2026 18.4925C47.2026 18.2455 47.4019 18.0449 47.6473 18.0449L52.9534 18.046C53.1988 18.046 53.3981 18.2465 53.3981 18.4936C53.3981 18.7406 53.1988 18.9401 52.9534 18.9401L47.6473 18.939C47.6179 18.9401 47.5885 18.9369 47.5613 18.9316Z" fill="#00283B"/>
<path d="M47.6694 20.7333C47.4649 20.6932 47.3108 20.5116 47.3108 20.2942C47.3108 20.0472 47.51 19.8477 47.7554 19.8477H50.7179C50.9633 19.8466 51.1625 20.0482 51.1625 20.2952C51.1625 20.5422 50.9633 20.7428 50.7179 20.7428H47.7554C47.7261 20.7418 47.6967 20.7386 47.6694 20.7333Z" fill="#019AF1"/>
<path d="M64.9783 18.8359C64.7738 18.7958 64.6196 18.6142 64.6196 18.3968C64.6196 18.1498 64.8189 17.9492 65.0643 17.9492L70.8937 17.9503C71.1381 17.9492 71.3384 18.1508 71.3384 18.3978C71.3384 18.6449 71.1391 18.8454 70.8937 18.8454L65.0643 18.8444C65.0349 18.8444 65.0055 18.8412 64.9783 18.8359Z" fill="#019AF1"/>
<path d="M45.3697 21.2534H42.8026C42.5289 21.2534 42.3076 21.0307 42.3076 20.7551V18.2111C42.3076 17.9356 42.5289 17.7129 42.8026 17.7129H45.3707C45.6444 17.7129 45.8657 17.9356 45.8657 18.2111V20.7551C45.8646 21.0296 45.6423 21.2534 45.3697 21.2534Z" fill="#019AF1"/>
<path d="M47.1093 88.1902C46.2736 88.0255 45.7262 87.2075 45.8897 86.3661C46.0533 85.5248 46.866 84.9738 47.7018 85.1385C48.5376 85.3031 49.085 86.1212 48.9214 86.9626C48.7578 87.8039 47.9462 88.3549 47.1093 88.1902ZM47.5319 86.0157C47.1775 85.946 46.8314 86.1793 46.7622 86.5371C46.693 86.8939 46.9248 87.2423 47.2803 87.312C47.6358 87.3816 47.9808 87.1483 48.05 86.7905C48.1192 86.4337 47.8874 86.0864 47.5319 86.0157Z" fill="#00283B"/>
<path d="M58.4001 87.0417C58.2722 87.7015 57.6367 88.1311 56.9823 88.0023C56.3269 87.8735 55.9001 87.2339 56.028 86.5752C56.156 85.9165 56.7914 85.4858 57.4458 85.6146C58.1012 85.7433 58.5291 86.383 58.4001 87.0417Z" fill="#00283B"/>
<path d="M57.6502 84.9808C57.8044 85.2119 57.7436 85.5255 57.5139 85.6817C57.2842 85.8369 56.9728 85.7756 56.8176 85.5445C56.6634 85.3133 56.7243 84.9998 56.9539 84.8435C57.1836 84.6884 57.495 84.7496 57.6502 84.9808Z" fill="#00283B"/>
<path d="M67.6785 87.8813L66.0101 87.9024C65.7049 87.9066 65.5046 87.5815 65.6431 87.3081L66.396 85.826C66.5397 85.5442 66.9329 85.5262 67.1007 85.7943L68.0162 87.2553C68.1861 87.5245 67.9952 87.8771 67.6785 87.8813Z" fill="#019AF1"/>
<path d="M67.1492 89.3645C67.1146 89.545 66.9395 89.6633 66.7602 89.6284C66.5808 89.5936 66.4634 89.4173 66.498 89.2368C66.5336 89.0563 66.7077 88.938 66.887 88.9729C67.0674 89.0077 67.1849 89.183 67.1492 89.3645Z" fill="#00283B"/>
<mask id="mask0_4731_54523" style="mask-type:alpha" maskUnits="userSpaceOnUse" x="42" y="28" width="31" height="32">
<path d="M72.0714 48.6983C69.5336 56.8455 60.9158 61.3793 52.8223 58.8248C44.7288 56.2702 40.2248 47.5952 42.7625 39.4481C45.3003 31.3009 53.9181 26.7671 62.0116 29.3217C70.1052 31.8762 74.6091 40.5512 72.0714 48.6983Z" fill="white"/>
</mask>
<g mask="url(#mask0_4731_54523)">
<path d="M72.0714 48.6983C69.5336 56.8455 60.9158 61.3793 52.8223 58.8248C44.7288 56.2702 40.2248 47.5952 42.7625 39.4481C45.3003 31.3009 53.9181 26.7671 62.0116 29.3217C70.1052 31.8762 74.6091 40.5512 72.0714 48.6983Z" fill="white"/>
<path d="M51.8389 34.7305C52.2982 35.2319 52.1178 36.165 51.5064 36.4574C51.1898 36.6094 50.8206 36.5989 50.4872 36.7087C49.8852 36.9071 49.4511 37.5363 49.4783 38.1739C49.4972 38.6404 49.7321 39.0669 49.8705 39.5124C50.01 39.9578 50.031 40.5057 49.6975 40.8298C49.5182 41.0039 49.2707 41.081 49.0421 41.1792C48.6027 41.3671 48.1958 41.6647 47.9536 42.0796C47.7124 42.4944 47.66 43.036 47.8928 43.4561C47.9966 43.6429 48.1508 43.7981 48.2493 43.9871C48.5178 44.5011 48.3269 45.1377 48.0406 45.6412C47.7544 46.1458 47.3726 46.6113 47.2384 47.175C47.1031 47.7397 47.3338 48.4576 47.8938 48.5958C48.0606 48.637 48.2399 48.6222 48.4045 48.6729C48.889 48.8196 49.0474 49.4213 49.0914 49.9291C49.1354 50.4358 49.1868 51.0269 49.6105 51.3035C50.0562 51.5948 50.6958 51.3784 51.1436 51.6655C51.4771 51.8788 51.5987 52.2989 51.799 52.642C52.0465 53.0621 52.4597 53.3967 52.9389 53.478C53.4171 53.5593 53.9498 53.3524 54.1952 52.9312C54.4039 52.5744 54.4018 52.1047 54.6755 51.7954C54.9471 51.4882 55.4085 51.4344 55.7315 51.181C56.2988 50.7366 56.2548 49.8488 55.9852 49.1785C55.7157 48.5082 55.2722 47.8896 55.1988 47.1697C55.097 46.1732 55.7304 45.182 55.5155 44.2035C55.2994 43.2165 54.2644 42.4955 54.2686 41.4853C54.2707 40.9944 54.5245 40.5458 54.6493 40.0718C54.9492 38.9276 54.3976 37.6133 53.3731 37.0327" fill="#019AF1"/>
<path d="M63.4862 46.3176C63.7987 46.6205 64.3461 46.5371 64.668 46.8306C65.1871 47.3056 64.6733 48.1966 64.8872 48.869C65.013 49.2669 65.3811 49.5351 65.5866 49.8992C65.8939 50.4429 65.7723 51.1955 65.3087 51.6114C64.8452 52.0284 64.0892 52.0664 63.5868 51.698C63.4904 51.6273 63.3949 51.5407 63.2764 51.528C62.9692 51.4953 62.8601 51.9176 62.664 52.1582C62.3631 52.5288 61.6584 52.3852 61.5241 51.9249C61.4507 51.6727 61.5262 51.3781 61.3878 51.1544C61.3113 51.0298 61.1812 50.9506 61.0554 50.8757C60.5248 50.5632 59.9784 50.2455 59.5936 49.7631C59.2087 49.2807 59.0199 48.5861 59.2957 48.0329C59.4279 47.7669 59.6575 47.5526 59.7467 47.2687C59.9564 46.6005 59.324 45.9903 59.0965 45.3274C58.4977 43.5825 60.2154 42.813 61.4937 43.4548C62.0694 43.744 62.9765 43.8696 63.2544 44.4882C63.5082 45.0551 62.9713 45.8204 63.4862 46.3176Z" fill="#019AF1"/>
<path d="M62.6977 48.7101C64.149 49.0944 65.9255 51.7682 66.9689 54.9213C68.0133 58.0754 69.1522 60.3682 70.3864 61.5146C74.2885 65.1406 80.0687 68.6811 80.6381 69.5414C81.2075 70.4017 80.2375 71.185 78.244 69.9436C76.2505 68.7012 69.5318 64.3816 67.7281 62.471C65.9244 60.5593 64.0683 56.0571 63.2136 53.6683C63.0563 53.2281 62.0035 52.8017 61.7581 52.0754C61.1709 50.3358 61.4257 48.3723 62.6977 48.7101Z" fill="#F3BBAB"/>
<path d="M53.3109 48.1328C52.9785 48.1571 51.0112 53.1575 51.9718 54.1571C52.9313 55.1557 53.9757 51.2627 53.8331 49.7331C53.6905 48.2046 53.3109 48.1328 53.3109 48.1328Z" fill="#5D0080"/>
<path d="M53.311 48.133C56.7285 47.8142 57.4374 48.1118 59.4068 48.0422C61.179 47.9778 62.6524 48.6977 62.6524 48.6977C62.6524 48.6977 63.5878 49.0703 63.7199 50.9335C63.8049 52.1369 63.6643 53.3286 63.7671 54.5394C63.8688 55.7502 66.4947 62.1524 66.4947 70.4009C66.4947 81.5819 75.8078 92.2393 75.8078 92.2393C75.8078 92.2393 75.3097 96.6074 70.1125 96.8259C67.0746 96.9536 67.3283 95.9339 62.8978 96.4437C58.5668 96.942 56.6467 100.243 51.8869 100.138C46.0648 100.011 45.9379 95.1696 41.2556 95.0419C37.944 94.9522 36.1508 93.2379 34.927 90.583C33.8091 88.1572 34.6743 83.8303 34.6743 83.8303C34.6743 83.8303 43.4819 84.1998 48.85 69.434C53.3519 57.0518 51.9718 54.1573 51.9718 54.1573C51.9718 54.1573 53.3749 53.5398 53.6591 51.438C53.9423 49.3458 53.311 48.133 53.311 48.133Z" fill="#00283B"/>
<path d="M63.2649 37.1881C64.1647 38.3609 65.228 38.6037 64.8589 39.0787C64.6041 39.407 64.1794 39.3679 64.3241 40.0213C64.4688 40.6748 64.6418 41.933 64.3723 42.5073C64.1018 43.0826 62.6389 43.4183 61.6511 44.1952C61.4099 44.3852 61.0942 44.6481 60.8992 45.1431C60.5552 46.013 60.5416 47.5985 60.5688 48.2392C60.6601 50.3578 61.52 51.6425 59.3839 52.051C57.6022 52.392 56.1183 49.849 56.714 47.9215C57.2373 46.2294 57.4764 43.7561 56.8671 43.4489C55.8352 42.9295 53.6016 41.8212 53.245 38.4147C52.8895 35.0083 55.3738 33.0132 57.9367 32.915C61.7674 32.7683 61.5986 35.0167 63.2649 37.1881Z" fill="#F3BBAB"/>
<path d="M52.855 34.7986C53.6677 35.3918 54.0253 33.971 55.2071 33.25C56.1771 32.6589 57.856 32.4277 59.105 32.8594C60.0834 32.5628 61.93 33.0294 62.6494 34.1695C63.2251 35.0815 62.8329 36.1719 61.8262 36.5456C61.7392 36.5773 61.6479 36.61 61.5515 36.6417C59.9376 37.1674 59.2948 38.4774 59.6261 39.2891C59.9586 40.1019 59.8789 40.7469 59.8789 40.7469C59.8789 40.7469 59.8464 40.0228 58.3363 38.7877C57.9567 38.4774 57.0223 38.413 56.9122 39.1223C56.7455 40.197 57.6956 40.388 58.0752 40.5949C58.4621 40.806 58.89 41.1196 59.0242 41.5344C59.2811 42.3219 59.2381 43.3025 58.265 44.0024C57.986 44.204 57.3957 44.3339 57.0391 44.3666C56.907 44.3793 56.6689 44.2125 56.7843 44.147C59.3378 42.6945 56.6197 43.236 55.8919 42.9194C53.5502 41.8996 53.0123 40.2117 52.8644 38.4721C52.8067 37.7912 53.0752 36.7715 52.8644 36.1793" fill="#019AF1"/>
<path d="M61.1371 43.3032C61.8251 43.4468 62.7752 43.375 63.6288 43.0879L63.6319 43.0995C63.052 43.4035 62.2613 43.7149 61.651 44.1952C61.4098 44.3852 61.0942 44.6481 60.8991 45.1432C60.7355 45.558 60.617 46.0658 60.5394 46.5524C60.6044 45.2793 60.4125 44.1308 60.3286 43.7339C60.2353 43.279 60.4482 43.1597 61.1371 43.3032Z" fill="#D8A69A"/>
<path d="M48.849 69.433C44.3387 81.8384 37.4029 83.5612 35.2993 83.7945C37.2467 83.6425 42.641 82.7347 46.1907 78.4468C50.4618 73.287 52.2613 66.8985 52.6451 61.6289C53.03 56.3593 51.9698 54.1562 51.9698 54.1562C51.9698 54.1562 53.3509 57.0507 48.849 69.433Z" fill="#00354B"/>
<path d="M53.3111 48.1334C54.3671 48.713 55.5793 49.8752 52.7637 55.6493C51.0407 59.1825 48.2618 65.5277 46.4885 68.0485C43.3069 72.5696 37.1283 76.0711 37.6222 74.4528C38.0395 73.0879 41.4749 70.3687 43.0458 67.8384C44.6104 65.3187 46.175 62.2733 48.157 56.9192C50.1389 51.5642 52.4155 47.6415 53.3111 48.1334Z" fill="#F3BBAB"/>
<path d="M61.0228 33.009C60.1272 33.0671 59.1247 33.0903 58.4578 32.4854C58.2407 32.2881 58.0761 32.0368 57.8538 31.8447C57.3189 31.3834 56.459 31.3623 55.9033 31.7972C55.6463 31.9988 55.4555 32.2786 55.186 32.4633C54.6679 32.8169 53.9884 32.7462 53.3624 32.7472C52.7363 32.7483 52.0064 32.9087 51.7464 33.483C51.3584 34.3401 52.341 35.3577 51.9876 36.2297C51.7076 36.9211 50.7533 37.0942 50.3968 37.7487C49.819 38.8075 51.1969 39.9771 51.1172 41.1815C51.071 41.8772 50.552 42.4292 50.1661 43.0077C49.4949 44.0148 49.2726 45.5602 50.2185 46.3128C50.3926 46.4511 50.5971 46.5545 50.7397 46.7245C51.3154 47.4149 50.4828 48.4198 50.5331 49.3192C50.5687 49.962 51.1434 50.5268 51.782 50.5489C52.4196 50.5711 53.0583 50.1235 53.6602 50.3368C54.6522 50.6872 54.6816 52.5092 55.7323 52.5525C56.4811 52.5831 57.0337 51.5687 57.7646 51.7365C58.5134 51.9086 58.506 53.0666 59.1289 53.5173C59.841 54.0335 60.8875 53.1985 60.9085 52.316C60.9295 51.4325 60.3307 50.6725 59.755 50.0053C59.3187 49.4997 58.8468 48.8821 59.0041 48.233C59.1551 47.607 59.8682 47.1024 59.691 46.4838C59.6228 46.2474 59.4341 46.069 59.3093 45.8568C58.7671 44.9321 59.5673 43.7445 59.3366 42.6963C59.1824 41.9943 58.5931 41.4781 57.9974 41.0812C57.4018 40.6843 56.7464 40.3339 56.3227 39.7543C55.8991 39.1748 55.7984 38.2702 56.3269 37.7867C56.5545 37.5787 56.8586 37.4816 57.1386 37.3549C58.5983 36.6984 59.5547 35.0516 59.4058 33.4482" fill="#019AF1"/>
</g>
</svg>
