<svg width="127" height="108" viewBox="0 0 127 108" fill="none" xmlns="http://www.w3.org/2000/svg">
<path d="M10.8368 50.5087C10.6209 33.7807 8.93153 15.1228 33.2884 4.36268C57.6463 -6.39621 82.8513 12.4205 91.2487 26.8102C99.6451 41.2 110.231 34.6353 114.475 48.8592C118.72 63.083 117.068 78.6448 76.445 80.8028C35.8219 82.9608 11.1623 75.6836 10.8368 50.5087Z" fill="#C7DBE6"/>
<g opacity="0.89">
<g opacity="0.89">
<path opacity="0.89" d="M93.8976 18.9593C93.0515 18.9593 92.1787 18.9246 91.2783 18.8542C84.3819 18.3147 75.7961 15.6901 65.7577 11.0542C53.4797 5.38473 37.3012 6.65111 25.892 8.71122C13.5075 10.9492 3.92171 14.5765 3.82605 14.6123C3.64952 14.6791 3.45228 14.592 3.38424 14.4165C3.31619 14.2411 3.40495 14.0441 3.58147 13.9773C3.67713 13.9403 13.324 10.2903 25.7697 8.04282C33.0843 6.72153 39.9245 6.13549 46.099 6.29901C53.8347 6.5055 60.5457 7.8972 66.0457 10.4371C76.0072 15.0372 84.5131 17.6404 91.3266 18.1751C96.8838 18.6107 101.35 17.6774 104.604 15.4012C108.178 12.9007 109.641 9.18865 110.241 6.51385C110.895 3.59317 110.69 1.23586 110.688 1.21318C110.672 1.02579 110.81 0.861078 110.998 0.843174C111.186 0.826464 111.352 0.963725 111.37 1.15112C111.379 1.25018 111.586 3.61943 110.913 6.63798C110.518 8.41402 109.898 10.0444 109.07 11.4827C108.032 13.2862 106.664 14.7913 105.003 15.9538C102.148 17.9519 98.4213 18.9593 93.8976 18.9593Z" fill="white"/>
</g>
</g>
<g opacity="0.89">
<g opacity="0.89">
<path opacity="0.89" d="M88.7664 32.9695C87.5573 32.9695 86.3147 32.9157 85.0396 32.8071C79.1047 32.3022 72.3039 30.6062 64.8266 27.7667C51.9174 22.8646 36.7992 23.6596 26.3899 25.1897C15.0922 26.85 6.74801 29.711 6.66517 29.7396C6.48667 29.8017 6.2924 29.7074 6.22928 29.5308C6.16715 29.3541 6.26182 29.1596 6.44032 29.0975C6.52316 29.0688 14.9176 26.1887 26.2755 24.5177C32.9491 23.5354 39.3277 23.1559 45.235 23.3898C52.6295 23.6822 59.303 24.9403 65.0702 27.1305C78.7753 32.3345 89.9646 33.6044 98.3265 30.9058C105.237 28.675 108.685 24.3327 110.966 21.4598C112.192 19.9153 113.003 18.896 113.889 18.8566C114.264 18.8399 114.622 19.0058 114.952 19.3508C115.082 19.4868 115.076 19.7017 114.939 19.8318C114.802 19.9607 114.586 19.9547 114.456 19.8186C114.204 19.5549 114.03 19.531 113.92 19.5358C113.346 19.562 112.534 20.5849 111.504 21.8811C110.413 23.2549 108.919 25.136 106.849 26.9121C104.389 29.0235 101.671 30.5405 98.5375 31.5527C95.6155 32.4956 92.3403 32.9695 88.7664 32.9695Z" fill="white"/>
</g>
</g>
<g opacity="0.89">
<g opacity="0.89">
<path opacity="0.89" d="M82.5022 47.4265C81.5979 47.4265 80.6857 47.4026 79.7655 47.3537C74.8257 47.0935 69.4875 46.1243 63.8978 44.4724C50.2716 40.4476 36.2105 40.7675 26.8141 41.7451C16.6228 42.805 9.56764 44.846 9.49762 44.8663C9.31616 44.9188 9.12583 44.8161 9.07257 44.6359C9.01932 44.4557 9.12287 44.2671 9.30433 44.2134C9.37533 44.1931 16.4779 42.1377 26.7273 41.0707C32.747 40.4441 38.6602 40.2746 44.3052 40.567C51.3653 40.9334 58.023 42.0279 64.092 43.8207C87.727 50.8019 99.7033 43.8076 107.627 39.1777C110.041 37.7681 111.946 36.6557 113.694 36.2379C115.635 35.7748 117.202 36.2546 118.627 37.749C118.757 37.885 118.752 38.0999 118.614 38.23C118.477 38.3589 118.26 38.3541 118.131 38.2169C115.446 35.4 112.633 37.0424 107.974 39.7649C104 42.0864 99.0544 44.9749 91.9874 46.4692C88.9716 47.1054 85.7921 47.4265 82.5022 47.4265Z" fill="white"/>
</g>
</g>
<g opacity="0.89">
<g opacity="0.89">
<path opacity="0.89" d="M75.1857 60.0432C71.1907 60.0432 67.166 59.6218 63.0467 58.7792C48.6326 55.831 35.6287 55.6651 27.2579 56.0459C18.185 56.4589 12.4474 57.5832 12.3911 57.5939C12.2057 57.6309 12.0253 57.5116 11.9888 57.3278C11.9513 57.144 12.0716 56.9649 12.257 56.9279C12.3142 56.916 18.0903 55.7833 27.2106 55.3679C32.5646 55.1244 38.0104 55.171 43.3959 55.5076C50.1286 55.9277 56.7864 56.805 63.1848 58.1131C80.235 61.6008 92.1364 57.1201 101.699 53.5191C106.029 51.8887 109.767 50.4814 113.131 50.2033C116.84 49.8966 119.779 51.0233 122.378 53.7494C122.508 53.8855 122.502 54.1003 122.365 54.2304C122.228 54.3594 122.011 54.3546 121.882 54.2173C119.437 51.6535 116.675 50.5936 113.189 50.8813C109.92 51.151 106.223 52.5439 101.942 54.1553C97.2083 55.9373 91.8435 57.958 85.45 59.1134C82.022 59.734 78.6147 60.0432 75.1857 60.0432Z" fill="white"/>
</g>
</g>
<g opacity="0.89">
<g opacity="0.89">
<path opacity="0.89" d="M67.1304 78.137C65.4647 78.137 63.7724 78.0582 62.0545 77.8876C32.886 74.9752 15.2776 75.1244 15.102 75.1256H15.0981C14.9107 75.1256 14.7579 74.9752 14.7559 74.789C14.7539 74.6016 14.9058 74.4477 15.0941 74.4453C15.2687 74.4441 32.9116 74.2937 62.1216 77.2108C73.7852 78.3745 84.298 75.1805 93.5731 72.3625C99.8581 70.4528 105.794 68.6493 111.174 68.5072C114.062 68.4309 116.601 68.8295 118.938 69.7259C121.523 70.7166 123.825 72.2957 125.977 74.5527C126.107 74.6888 126.102 74.9036 125.964 75.0337C125.827 75.1626 125.61 75.1579 125.481 75.0206C116.876 65.9936 106.681 69.0921 93.7723 73.0142C85.796 75.4371 76.9095 78.137 67.1304 78.137Z" fill="white"/>
</g>
</g>
<path d="M112.167 99.7275C112.167 102.747 90.4253 105.195 63.6058 105.195C36.7864 105.195 15.0449 102.747 15.0449 99.7275C15.0449 96.7078 36.7864 94.2598 63.6058 94.2598C90.4253 94.2598 112.167 96.7078 112.167 99.7275Z" fill="#0196ED"/>
<path d="M48.4648 71.2215C48.4648 71.7789 48.09 72.2324 47.6295 72.2324H44.6946C43.9224 72.2324 43.2942 72.9927 43.2942 73.9285V75.128H43.8593V73.9285C43.8593 73.3711 44.234 72.9175 44.6946 72.9175H47.6295C48.4017 72.9175 49.0299 72.1572 49.0299 71.2215V69.8691H48.4648V71.2215Z" fill="#22445D"/>
<path d="M43.5762 74.2461C43.1738 74.2461 42.8474 74.6412 42.8474 75.1282C42.8474 75.6163 43.1738 76.0114 43.5762 76.0114C43.9786 76.0114 44.305 75.6163 44.305 75.1282C44.306 74.6412 43.9796 74.2461 43.5762 74.2461Z" fill="#0B2739"/>
<path d="M54.7174 57.078L49.674 16.7566C49.4196 14.3742 47.7431 12.5898 45.7579 12.5898H31.3891C29.0183 12.5898 27.182 15.1011 27.47 17.949L32.1494 57.3286C32.397 59.7671 33.3733 62.2318 34.9502 64.3767L36.535 66.5335C38.2845 68.9147 40.7914 70.2765 43.4245 70.2765H60.3535L57.2677 64.7288C55.6513 62.3667 54.748 59.668 54.7174 57.078Z" fill="#0B2739"/>
<path d="M57.0978 57.078L52.0545 16.7566C51.8 14.3742 50.1235 12.5898 48.1383 12.5898H33.7695C31.3987 12.5898 29.5624 15.1011 29.8494 17.949L34.5289 57.3286C34.7764 59.7671 35.7528 62.2318 37.3297 64.3767L39.4707 67.2902C40.8661 69.1892 41.1936 68.7082 43.2932 68.7082L63.4469 70.2754L59.6471 64.7276C58.0318 62.3667 57.1294 59.668 57.0978 57.078Z" fill="#22445D"/>
<path d="M36.0122 96.2411C36.0122 98.1067 36.596 99.6189 37.315 99.6189H39.6611V92.8633H37.315C36.596 92.8633 36.0122 94.3767 36.0122 96.2411Z" fill="#22445D"/>
<path d="M39.6621 92.8633C38.9432 92.8633 38.3594 94.3756 38.3594 96.2411C38.3594 98.1067 38.9432 99.6189 39.6621 99.6189C40.382 99.6189 40.9649 98.1079 40.9649 96.2411C40.9639 94.3767 40.3811 92.8633 39.6621 92.8633Z" fill="#106DA1"/>
<path d="M39.6593 93.873C39.4828 93.873 39.3269 94.249 39.2283 94.8303C39.1573 95.223 39.1228 95.7111 39.1228 96.2423C39.1228 96.5753 39.1366 96.8832 39.1652 97.1661C39.25 98.0136 39.4335 98.6103 39.6603 98.6103C39.9147 98.6103 40.1337 97.8238 40.1899 96.7722C40.1968 96.6016 40.2037 96.4213 40.2037 96.2423C40.2037 95.5321 40.1327 94.8912 40.0133 94.4543C39.9206 94.0951 39.7934 93.873 39.6593 93.873Z" fill="#0B2739"/>
<path d="M54.2095 70.2754H51.1001L51.107 89.2711L40.0123 94.4548L39.2283 94.8308C39.1573 95.2235 39.1228 95.7117 39.1228 96.2428C39.1228 96.5758 39.1366 96.8838 39.1652 97.1666L40.1899 96.7728L52.6553 91.9925L65.742 97.3039L66.1878 95.1913L54.2026 89.2735L54.2095 70.2754Z" fill="#B6B7B7"/>
<path d="M53.6899 89.6934H51.6189V96.449H53.6899V89.6934Z" fill="#B6B7B7"/>
<path d="M70.5516 64.6426H43.1059C41.5408 64.6426 40.5034 66.6048 41.1582 68.3271C41.2065 68.4537 41.2568 68.5814 41.3081 68.7079H72.3159L72.3385 68.6685C73.3159 66.9736 72.2606 64.6426 70.5516 64.6426Z" fill="#22445D"/>
<path d="M41.315 68.7237C41.7065 69.6905 42.5438 70.2754 43.4333 70.2754H71.2725C71.662 69.7657 72.0121 69.2358 72.3159 68.707H41.3091C41.3111 68.7142 41.313 68.719 41.315 68.7237Z" fill="#0B2739"/>
<path d="M63.7114 96.2411C63.7114 98.1067 64.2943 99.6189 65.0142 99.6189H67.3603V92.8633H65.0142C64.2943 92.8633 63.7114 94.3767 63.7114 96.2411Z" fill="#22445D"/>
<path d="M67.3601 92.8633C66.6412 92.8633 66.0574 94.3756 66.0574 96.2411C66.0574 98.1067 66.6402 99.6189 67.3601 99.6189C68.0801 99.6189 68.6629 98.1079 68.6629 96.2411C68.6629 94.3767 68.0801 92.8633 67.3601 92.8633Z" fill="#106DA1"/>
<path d="M67.3602 93.8711C67.0634 93.8711 66.8218 94.9322 66.8218 96.2415C66.8218 97.5509 67.0624 98.6132 67.3602 98.6132C67.6581 98.6132 67.8987 97.5521 67.8987 96.2415C67.8987 94.9334 67.6581 93.8711 67.3602 93.8711Z" fill="#0B2739"/>
<path d="M53.3622 92.8633H51.6502C51.1798 92.8633 50.7981 93.3252 50.7981 93.8945V98.5865C50.7981 99.1558 51.1798 99.6178 51.6502 99.6178H53.3622C53.8326 99.6178 54.2143 99.1558 54.2143 98.5865V93.8945C54.2143 93.3252 53.8326 92.8633 53.3622 92.8633Z" fill="#22445D"/>
<path d="M54.2569 17.0448C54.2382 16.9123 54.1958 16.83 54.1464 16.7679C54.2618 13.9785 52.8703 11.4708 51.3309 10.3966C51.2461 10.3381 51.1691 10.3429 51.1001 10.3751C49.4315 9.61479 47.7135 10.4014 46.6968 12.7945C46.1869 13.9952 45.9926 15.455 45.3743 16.5614C44.7431 17.6917 43.9867 18.1584 43.1416 18.6836C42.2431 19.2434 41.5804 19.722 41.0745 21.1209C40.5065 22.6928 40.4611 23.8231 39.4739 25.0191C39.0173 25.5729 38.5499 25.9477 38.2333 26.7426C37.8388 27.7357 37.7293 29.0283 37.9325 30.1598C38.2491 31.9203 39.3033 32.5804 39.9394 33.9733C40.5025 35.2074 40.6189 36.1062 41.5903 36.4917C42.679 36.9226 43.9562 36.4714 45.0202 36.1146C46.0883 35.7565 46.9354 35.4867 48.037 35.7565C48.7895 35.9403 49.5202 36.3568 50.2865 36.4022C50.7411 36.4297 51.1188 36.4225 51.538 36.1026C51.6899 35.9868 51.8269 35.8353 51.9502 35.6467C52.3013 35.0308 52.7549 34.7133 53.3121 34.6906C53.9561 34.1917 54.1435 33.8957 54.2046 32.7033C54.247 31.8595 54.1632 30.9368 54.0281 29.9963C55.1533 25.6612 54.9255 21.6759 54.2569 17.0448Z" fill="#0B2739"/>
<path d="M81.7258 96.5747C80.9931 96.0448 79.6006 93.327 79.3096 92.9892C76.9477 90.2428 76.4112 62.8252 72.4034 59.7792C69.8383 57.8277 65.4803 59.5596 65.6933 64.1787C65.9645 70.0702 76.0957 87.4236 76.2613 91.2765C76.2801 91.7085 75.5887 92.3459 75.8264 93.3951C76.0187 94.2437 76.7436 94.3881 77.0256 94.7462C79.7248 98.1717 83.3096 97.7623 83.353 97.421C83.3964 97.0796 82.1025 96.8469 81.7258 96.5747Z" fill="#D2A99E"/>
<path d="M82.6552 97.2715C82.4452 97.3383 82.2124 97.3586 81.9619 97.3133C81.1463 97.1688 80.2568 96.6938 79.5556 96.208C78.8742 95.7354 78.4738 94.1933 77.8397 93.68C77.3091 93.2503 76.3367 92.7801 75.7026 92.7598C75.6227 92.9877 74.8771 94.7148 76.8959 95.3809C77.6651 95.6351 79.4245 97.9065 80.3219 98.2741C81.0566 98.5761 82.3919 98.964 83.0911 98.3767C83.3426 98.1667 83.5181 97.8181 83.4067 97.3825C83.3623 97.2166 83.0684 97.441 82.6552 97.2715Z" fill="#106DA1"/>
<path d="M82.2724 96.6891C82.235 96.8383 82.1087 96.9541 81.8573 96.9099C81.0407 96.7643 80.4727 96.559 79.7942 96.0315C79.1344 95.517 78.3701 93.7899 77.735 93.2767C77.2044 92.8482 76.4559 92.0461 75.8218 92.0234C75.7419 92.2514 74.7725 94.3103 76.7912 94.9764C77.5604 95.2294 79.3198 97.5008 80.2172 97.8696C80.9519 98.1704 82.4697 98.4616 83.1758 97.8863C83.2685 97.8099 83.4509 97.5664 83.3938 97.3361C83.3523 97.1701 82.6857 96.8586 82.2724 96.6891Z" fill="#22445D"/>
<path d="M77.0595 53.4841C72.3534 51.2844 57.0231 50.3331 52.5695 51.5338C49.7007 52.3073 49.3545 63.7226 53.0182 63.651C56.6819 63.5782 74.0151 61.3832 78.4618 60.1634C80.5516 59.5904 81.7616 55.6827 77.0595 53.4841Z" fill="#F1C8B9"/>
<path d="M56.2303 51.1169C52.9088 51.8688 52.5084 62.9667 56.75 62.8963C58.747 62.8628 66.1425 62.1455 71.3781 61.5797C69.7549 57.3963 71.0231 52.9836 73.3101 50.9163C66.9827 50.2408 59.3299 50.4138 56.2303 51.1169Z" fill="#0196ED"/>
<path d="M71.3424 53.896C69.3424 53.6823 58.8533 53.6776 55.4944 54.2254C54.9628 54.3126 54.4697 54.3078 54.022 54.2314C53.1068 57.7489 53.8455 62.9457 56.8011 62.8967C58.8326 62.8633 65.9805 61.5265 71.3049 60.9596C70.2813 58.3647 70.5574 56.0528 71.3424 53.896Z" fill="#106DA1"/>
<path d="M71.5387 59.0492C67.2271 56.2085 52.2143 53.1028 47.6226 53.6614C39.0615 54.7046 39.5339 64.5862 48.7676 65.7189C52.4017 66.1641 67.2981 66.4303 71.8858 65.8526C74.0426 65.5805 75.8473 61.8875 71.5387 59.0492Z" fill="#D2A99E"/>
<path d="M79.8464 55.6253C78.2873 52.7691 74.0743 52.5125 72.8218 56.8081C71.2242 62.2866 74.3889 82.3554 73.3346 85.9338C73.2163 86.3348 72.4352 86.6248 72.311 87.68C72.2104 88.5334 72.7774 88.9702 72.9037 89.4142C74.1186 93.6705 77.2685 94.8056 77.4115 94.5132C77.5545 94.2208 76.5348 93.464 76.3011 93.0582C75.8474 92.2669 75.5151 89.2053 75.375 88.7757C74.234 85.2809 82.2823 60.0869 79.8464 55.6253Z" fill="#F1C8B9"/>
<path d="M77.1099 94.3002C76.8929 94.2716 76.672 94.1904 76.4551 94.04C75.7499 93.5507 75.0882 92.7223 74.6059 91.9644C74.1355 91.2268 74.2904 89.6095 73.8791 88.8551C73.534 88.2249 72.7953 87.362 72.2154 87.0684C72.0636 87.2474 70.7874 88.5412 72.4275 90.038C73.0527 90.6085 73.9077 93.497 74.6119 94.2286C75.1888 94.8278 76.2923 95.7695 77.1365 95.5225C77.4403 95.4329 77.7213 95.1847 77.7657 94.7275C77.7825 94.5545 77.4353 94.638 77.1099 94.3002Z" fill="#106DA1"/>
<path d="M77.0348 93.7266C76.8178 93.6979 75.446 93.0259 74.9411 91.9255C74.449 90.8536 74.3307 89.1862 73.9194 88.4319C73.5743 87.8016 73.0388 86.8241 72.4589 86.5293C72.307 86.7083 70.8277 88.1191 72.4678 89.6159C73.093 90.1852 73.948 93.0737 74.6522 93.8065C75.2291 94.4057 76.5328 95.3355 77.3809 95.1027C77.4924 95.0717 77.7439 94.9213 77.7695 94.6826C77.7892 94.5072 77.3602 94.0643 77.0348 93.7266Z" fill="#22445D"/>
<path d="M55.8958 26.479C54.6828 25.2329 53.4264 28.8399 54.5576 32.0446C56.3021 36.9825 57.9915 38.5986 60.2755 41.7078C62.2429 44.385 64.4076 41.1289 62.8425 38.324C60.4274 33.9926 58.0546 28.6967 55.8958 26.479Z" fill="#F1C8B9"/>
<path d="M76.2132 41.2645C71.9479 40.8801 64.2655 38.8546 63.3504 38.5944C61.4224 38.049 60.8474 42.3745 60.8474 42.3745C65.4095 44.9395 74.6491 43.1515 76.2024 43.1515C77.516 43.1515 76.6836 41.3063 76.2132 41.2645Z" fill="#F1C8B9"/>
<path d="M80.155 39.8202C79.6156 39.7676 78.8434 39.4561 78.2073 40.0887C77.0475 41.2429 75.0535 41.1068 75.0535 41.1068L75.2083 43.2875C75.2083 43.2875 76.3266 43.2457 76.9065 43.9845C77.4864 44.7234 78.5919 43.4832 78.9834 43.4343C79.3099 43.3937 78.4124 42.6537 77.5397 43.2553C77.9381 42.933 78.3779 42.5379 79.3197 42.4245C80.1619 42.3219 80.1245 41.1952 80.4815 40.4838C80.6245 40.1973 80.4519 39.8488 80.155 39.8202Z" fill="#F1C8B9"/>
<path d="M51.1492 32.0507L52.5496 31.8167L51.5121 28.9844L51.1492 32.0507Z" fill="#E01927"/>
<path d="M45.9914 65.8447C47.9372 66.0452 56.9115 66.1777 62.1511 66.0691C64.0781 64.675 64.448 61.1695 65.0338 59.9222C66.6087 56.5647 68.0762 57.4694 69.4756 56.5241C61.2685 54.2062 49.9115 53.9961 46.7498 53.9961C40.2045 53.9949 38.5398 65.0761 45.9914 65.8447Z" fill="#0196ED"/>
<path d="M53.9875 38.1338C55.1078 34.1866 56.7853 33.1064 55.3051 30.6906C54.0861 28.7045 55.8672 26.4344 55.8672 26.4344C55.0871 25.9163 54.3859 25.5165 54.3859 25.5165C54.3859 25.5165 54.592 23.6175 52.8879 25.0403C52.1108 25.68 50.7814 26.056 49.809 25.0486C47.6552 22.8357 47.67 24.6356 47.67 24.6356C47.67 24.6356 46.9136 24.8517 46.0605 25.1548C46.0605 25.1548 47.4057 27.832 45.8584 29.4648C43.9954 31.4331 45.4481 33.5755 45.1434 38.24C44.8406 42.8938 41.3584 48.6599 40.885 57.5031C56.4727 56.454 60.4707 50.0683 60.4707 50.0683C57.808 48.8557 52.8741 42.0833 53.9875 38.1338Z" fill="#0196ED"/>
<path d="M55.7213 45.3319C54.9422 45.283 54.1789 45.3045 53.4165 45.2997C53.0082 45.7341 52.4856 46.0099 51.8643 46.0099C50.6138 46.0099 49.2775 44.6361 49.3909 43.0164C49.3939 42.9698 49.4037 42.9209 49.4067 42.8743C49.311 42.3838 49.3012 41.8825 49.4195 41.4361C49.5014 41.1317 49.6158 40.8703 49.744 40.6316C49.9668 39.586 50.2657 38.556 50.6296 37.6214C51.0526 36.5353 51.524 36.8026 52.2094 36.1103C50.3613 36.3586 49.2617 35.0278 48.4185 34.9991C46.8761 34.9466 45.601 33.9548 44.8939 32.4043C44.9402 33.8414 45.311 35.652 45.1424 38.2421C44.8396 42.8958 41.3574 48.662 40.884 57.5052C45.8958 57.1674 49.7045 56.277 52.5723 55.2266C50.4806 55.2422 48.2351 54.785 47.0231 52.6581C46.526 51.7856 46.6098 50.5168 47.0231 49.6359C47.8377 47.8969 48.9846 47.7477 50.4629 47.355C52.0043 46.9444 53.9432 46.5076 55.3564 45.6709C55.5704 45.5444 55.7824 45.4584 55.9915 45.4047C55.9717 45.3749 55.952 45.3462 55.9333 45.3164C55.8623 45.3188 55.7942 45.3367 55.7213 45.3319Z" fill="#106DA1"/>
<path d="M46.9552 26.0004C46.2984 23.9546 44.1169 25.7689 43.9878 29.3997C43.7885 34.9928 44.4661 37.9409 45.4256 42.436C46.253 46.3067 49.4483 44.5772 49.0361 40.9273C48.4 35.2948 48.1248 29.6408 46.9552 26.0004Z" fill="#F1C8B9"/>
<path d="M61.6522 40.1469C57.3889 40.6017 49.4185 39.8425 48.4757 39.7447C46.4896 39.537 46.5103 44.4569 46.5103 44.4569C51.4126 46.3583 61.0595 43.0735 62.0654 42.1211C63.0723 41.1698 62.1226 40.0968 61.6522 40.1469Z" fill="#F1C8B9"/>
<path d="M64.2677 40.4736C63.3219 40.544 62.8288 40.2074 62.385 39.9389C63.3387 40.4115 64.1079 39.4232 63.7805 39.4471C63.387 39.4758 62.1059 38.3574 61.6483 39.2788C61.1917 40.1991 60.0833 40.3841 60.0833 40.3841L60.2913 42.9371C60.2913 42.9371 62.2134 42.2222 63.5349 43.2343C64.2588 43.7893 64.9718 43.2928 65.4955 43.1233C65.7834 43.0314 65.8998 42.6172 65.7134 42.3356C65.2509 41.6409 65.1138 40.4115 64.2677 40.4736Z" fill="#F1C8B9"/>
<path d="M52.7667 22.0264V25.2419C52.7667 25.2419 53.4807 26.8281 52.7667 27.0012C51.1967 27.3807 48.9314 24.4171 48.9314 24.4171V20.1035L52.7667 22.0264Z" fill="#F1C8B9"/>
<path d="M48.9304 22.5927V20.1387C48.9304 20.1387 50.8821 22.3945 52.7657 22.5234C52.7667 22.5234 50.4965 23.8567 48.9304 22.5927Z" fill="#D2A99E"/>
<path d="M53.7082 12.3984C53.7082 12.3984 55.1214 15.8646 55.4745 19.0956C55.725 21.3884 52.2565 24.4154 49.4301 21.1855C46.6047 17.9557 47.3887 13.0155 47.3887 13.0155L53.7082 12.3984Z" fill="#F1C8B9"/>
<path d="M55.0715 12.2765C54.8792 12.1308 54.6277 12.1225 54.4433 11.9793C53.8663 11.5317 54.106 11.3192 53.7727 10.8752C53.4837 10.4921 53.2125 10.2414 52.8121 10.0612C51.7815 9.59808 50.5932 9.77831 49.5537 10.0827C49.2283 10.1782 49.1849 10.5446 49.3082 10.8263C48.2806 11.0745 47.1632 12.2586 46.7244 13.0654C45.8545 14.666 45.7441 17.348 46.6287 18.9844C47.324 20.2674 48.6307 21.319 49.3328 19.617C49.8683 18.3171 49.7796 17.1069 49.6948 15.7152C49.6632 15.2043 49.6504 14.7722 49.6958 14.3807C50.252 13.4629 51.0094 12.8172 51.8604 12.8124C52.0744 13.0714 52.2569 13.4617 52.4561 13.7195C52.7569 14.1086 53.1188 14.4177 53.5251 14.623C54.1543 14.9405 55.0271 15.0074 55.463 14.2387C55.8555 13.5476 55.6257 12.6942 55.0715 12.2765Z" fill="#0B2739"/>
<path d="M49.9698 16.0678C49.9698 16.0678 48.8327 15.4269 48.6069 16.5309C48.381 17.635 49.2104 18.2879 49.6493 18.0862C50.0881 17.8844 50.2351 16.5309 49.9698 16.0678Z" fill="#F1C8B9"/>
<path d="M43.9619 44.4336H32.3574L32.4343 45.8432L43.3741 45.8002C44.5901 45.8002 46.0161 47.1931 45.238 50.2415L41.2055 68.7372H42.4096L47.025 49.3714C47.6207 46.8971 46.0891 44.4336 43.9619 44.4336Z" fill="#0B2739"/>
<path d="M46.956 44.4336H43.9619C46.0882 44.4336 47.6197 46.8971 47.025 49.3726L42.4097 68.7384H45.2154L50.0191 49.3726C50.6148 46.8971 49.0832 44.4336 46.956 44.4336Z" fill="#22445D"/>
<path d="M58.1877 45.2483H96.9913C97.5485 45.2483 97.9992 44.7028 97.9992 44.0284C97.9992 43.3553 97.5485 42.8086 96.9913 42.8086H58.3347L58.1877 45.2483Z" fill="#E25D4E"/>
<path d="M31.5419 45.2483H58.1878L58.3347 42.8086H31.5419C30.9561 42.8086 30.4936 43.4102 30.537 44.1168C30.5745 44.7553 31.0133 45.2483 31.5419 45.2483Z" fill="#E25D4E"/>
<path d="M51.6404 45.248H36.9551C34.4581 45.248 32.4265 47.7247 32.4265 50.7683V99.619H33.4699V50.7683C33.4699 48.4265 35.033 46.5204 36.9541 46.5204H51.6395C53.5606 46.5204 55.1237 48.4265 55.1237 50.7683V99.619H56.1671V50.7683C56.168 47.7247 54.1375 45.248 51.6404 45.248Z" fill="#B6B7B7"/>
<path d="M88.3897 45.248H73.7034C71.2063 45.248 69.1758 47.7247 69.1758 50.7683V99.619H70.2192V50.7683C70.2192 48.4265 71.7823 46.5204 73.7034 46.5204H88.3887C90.3098 46.5204 91.8729 48.4265 91.8729 50.7683V99.619H92.9163V50.7683C92.9173 47.7247 90.8857 45.248 88.3897 45.248Z" fill="#D3D4D3"/>
<path d="M85.4291 24.1465H66.4923C65.8572 24.1465 65.2901 24.7683 65.2231 25.5358L63.9795 39.9005C63.9134 40.6668 64.373 41.2886 65.0081 41.2886H83.9439C84.578 41.2886 85.146 40.6668 85.2121 39.9005L86.4557 25.5358C86.5228 24.7683 86.0632 24.1465 85.4291 24.1465Z" fill="#0B2739"/>
<path d="M52.9292 41.2969C52.9292 41.3196 52.9263 41.3398 52.9263 41.3625C52.9263 42.1968 53.4854 42.8736 54.1748 42.8736H74.0317C74.722 42.8736 75.2802 42.1968 75.2802 41.3625C75.2802 41.3398 75.2783 41.3196 75.2783 41.2969H52.9292Z" fill="#22445D"/>
<path d="M85.7122 24.1465H66.7764C66.1413 24.1465 65.5743 24.7683 65.5082 25.5358L64.2646 39.9005C64.1985 40.6668 64.6581 41.2886 65.2932 41.2886H84.229C84.8631 41.2886 85.4312 40.6668 85.4972 39.9005L86.7398 25.5358C86.8069 24.7683 86.3463 24.1465 85.7122 24.1465Z" fill="#22445D"/>
<path d="M63.9668 41.2969C63.9668 41.3196 63.9639 41.3398 63.9639 41.3625C63.9639 42.1968 64.523 42.8736 65.2124 42.8736H83.9648C84.6541 42.8736 85.2133 42.1968 85.2133 41.3625C85.2133 41.3398 85.2113 41.3196 85.2113 41.2969H63.9668Z" fill="#0B2739"/>
<path d="M90.3277 38.9173H91.948C90.5121 34.9164 88.9145 33.5391 88.9145 33.5391C88.9145 33.5391 89.162 35.4643 90.3099 37.6474C89.4737 36.8536 88.1946 36.8059 88.1946 36.8059C88.1946 36.8059 89.0466 38.3814 90.3277 38.9173Z" fill="#5CAF15"/>
<path d="M96.6223 36.4572C96.21 36.6566 94.7662 37.7236 94.713 37.7678C95.6775 35.7733 96.3086 33.5986 96.3086 33.5986C96.3086 33.5986 95.0641 34.9307 94.0631 36.9609C93.8964 37.2987 93.5187 37.8203 93.5187 37.8119C94.852 34.5225 95.6518 30.8224 95.6518 30.8224C95.6518 30.8224 94.7041 31.443 93.786 33.7991C93.716 30.9143 93.1233 29.6348 93.1233 29.6348C93.1233 29.6348 92.6597 32.0613 92.7091 35.0405C92.7238 35.8963 91.9576 32.2547 91.9576 32.2547C91.9576 32.2547 91.6834 33.4638 91.6874 35.1025C91.0345 33.3611 89.2258 30.5634 89.2258 30.5634C89.2258 30.5634 90.8126 34.8853 91.8008 36.9347C91.3028 36.1911 89.5079 32.8896 89.5079 32.8896C89.5079 32.8896 89.7199 37.1734 91.5049 38.9196H94.7751C95.0651 38.7954 95.3728 38.626 95.6735 38.3956C96.2465 37.954 96.6686 37.3882 96.9329 36.9406C97.1982 36.4919 97.3165 36.1636 97.3165 36.1636C97.3165 36.1636 97.0335 36.2591 96.6223 36.4572Z" fill="#3C7521"/>
<path d="M95.2921 38.9174H94.3049C95.1807 36.4789 96.154 35.6387 96.154 35.6387C96.154 35.6387 96.0031 36.812 95.3039 38.1428C95.8138 37.6582 96.5939 37.6296 96.5939 37.6296C96.5939 37.6296 96.0732 38.5904 95.2921 38.9174Z" fill="#5CAF15"/>
<path d="M94.516 38.7485L93.9864 39.4133C93.1945 37.352 93.2832 36.1895 93.2832 36.1895C93.2832 36.1895 93.8089 36.9999 94.1215 38.2734C94.1442 37.6385 94.5476 37.0966 94.5476 37.0966C94.5476 37.0966 94.7665 38.0264 94.516 38.7485Z" fill="#3C7521"/>
<path d="M88.9824 42.7285H96.9853C97.3581 42.7285 97.6885 42.4361 97.8019 42.0064L98.3689 39.846C98.5445 39.1776 98.1323 38.4961 97.5524 38.4961H88.4154C87.8365 38.4961 87.4242 39.1776 87.5988 39.846L88.1659 42.0064C88.2793 42.4361 88.6096 42.7285 88.9824 42.7285Z" fill="#B6B7B7"/>
</svg>
