<svg width="16" height="18" viewBox="0 0 16 18" fill="none" xmlns="http://www.w3.org/2000/svg">
<mask id="mask0_4690_54080" style="mask-type:alpha" maskUnits="userSpaceOnUse" x="0" y="0" width="16" height="18">
<rect width="15.84" height="18" fill="#C4C4C4"/>
</mask>
<g mask="url(#mask0_4690_54080)">
<path d="M12.8848 11.6202C12.7921 11.6202 12.7031 11.5781 12.6375 11.5032C12.572 11.4283 12.5351 11.3267 12.5351 11.2208V8.53276C12.5351 5.58974 10.6827 3.19553 8.40578 3.19553H7.4334C5.15644 3.19553 3.30405 5.58974 3.30405 8.53276V8.98539C3.30405 9.09132 3.26721 9.19295 3.20163 9.26785C3.13606 9.34276 3.04712 9.38479 2.95438 9.38479C2.86164 9.38479 2.7727 9.34276 2.70712 9.26785C2.64155 9.19295 2.60471 9.09132 2.60471 8.98539V8.53276C2.60471 5.14939 4.77122 2.39673 7.43369 2.39673H8.40607C11.0685 2.39673 13.2348 5.14939 13.2348 8.53276V11.2208C13.2348 11.2733 13.2257 11.3253 13.2081 11.3737C13.1905 11.4222 13.1647 11.4663 13.1322 11.5033C13.0997 11.5404 13.0612 11.5698 13.0187 11.5899C12.9762 11.6099 12.9307 11.6202 12.8848 11.6202Z" fill="white"/>
<path d="M2.96991 11.6814C2.88239 11.6814 2.79845 11.5801 2.73657 11.3999C2.67468 11.2198 2.63991 10.9756 2.63991 10.7208V8.4955C2.63991 8.24075 2.67468 7.99634 2.73657 7.8162C2.79845 7.63606 2.88239 7.53498 2.96991 7.53498C3.05743 7.53498 3.14137 7.63606 3.20326 7.8162C3.26515 7.99634 3.29991 8.24075 3.29991 8.4955V10.7208C3.29991 10.847 3.29138 10.9719 3.27479 11.0884C3.25821 11.205 3.2339 11.3107 3.20326 11.3999C3.17261 11.4891 3.13623 11.56 3.0962 11.6083C3.05616 11.6565 3.01325 11.6814 2.96991 11.6814Z" fill="white"/>
<path d="M1.67979 15.2502C1.63234 15.25 1.58542 15.2387 1.54197 15.2169C1.29509 15.095 1.08287 14.8968 0.92916 14.6447C0.775454 14.3925 0.68635 14.0965 0.671861 13.7897C0.638213 13.4802 0.675926 13.166 0.781262 12.8782C0.886599 12.5904 1.05591 12.3392 1.27243 12.1491L2.67345 10.9791C2.71042 10.9467 2.75269 10.9232 2.79777 10.9097C2.84284 10.8963 2.88981 10.8932 2.93593 10.9008C2.98204 10.9084 3.02637 10.9264 3.0663 10.9538C3.10623 10.9812 3.14096 11.0174 3.16846 11.0604C3.19595 11.1033 3.21566 11.1522 3.22641 11.204C3.23716 11.2558 3.23874 11.3095 3.23107 11.3619C3.22339 11.4144 3.20661 11.4646 3.18171 11.5096C3.15681 11.5546 3.12429 11.5934 3.08606 11.6238L1.67105 12.8048C1.5582 12.9165 1.47146 13.0585 1.41865 13.2181C1.36585 13.3777 1.34864 13.5497 1.36859 13.7188C1.37427 13.8683 1.41287 14.0138 1.48081 14.1418C1.54875 14.2698 1.64385 14.3761 1.75731 14.451L7.91622 14.3845H7.91971C8.01245 14.384 8.10156 14.4256 8.16744 14.5002C8.23331 14.5747 8.27056 14.6761 8.27099 14.7821C8.27141 14.888 8.23498 14.9898 8.1697 15.065C8.10443 15.1403 8.01566 15.1828 7.92292 15.1833L1.683 15.2499L1.67979 15.2502Z" fill="white"/>
<path d="M14.1596 15.2503H14.1564L7.6988 15.1837C7.60606 15.1832 7.51731 15.1406 7.45206 15.0653C7.38681 14.99 7.35041 14.8882 7.35088 14.7823C7.35134 14.6763 7.38863 14.575 7.45453 14.5005C7.52043 14.4259 7.60956 14.3843 7.7023 14.3848H7.7055L14.0821 14.4515C14.1955 14.3766 14.2906 14.2702 14.3586 14.1422C14.4265 14.0142 14.4651 13.8687 14.4708 13.7191C14.4907 13.5532 14.4748 13.3842 14.4245 13.2268C14.3743 13.0695 14.2911 12.9285 14.1823 12.8162L12.7271 11.5846C12.6896 11.5537 12.6579 11.5145 12.6338 11.4694C12.6096 11.4243 12.5935 11.3742 12.5865 11.322C12.5794 11.2698 12.5815 11.2165 12.5926 11.1652C12.6037 11.1139 12.6236 11.0656 12.6511 11.0231C12.6787 10.9807 12.7133 10.9449 12.7531 10.9179C12.7928 10.8908 12.8368 10.873 12.8826 10.8656C12.9284 10.8581 12.9751 10.8612 13.0199 10.8744C13.0646 10.8877 13.1067 10.911 13.1435 10.9429L14.5827 12.1614C14.7949 12.352 14.9604 12.6021 15.0629 12.8874C15.1653 13.1727 15.2014 13.4835 15.1675 13.7894C15.153 14.0962 15.0639 14.3922 14.9102 14.6444C14.7565 14.8965 14.5443 15.0947 14.2974 15.2166C14.254 15.2385 14.2071 15.25 14.1596 15.2503Z" fill="white"/>
<path d="M7.91973 17.2484C7.407 17.2709 6.90729 17.0608 6.52979 16.6638C6.15228 16.2669 5.92767 15.7153 5.90503 15.1298H6.62186C6.66334 15.4894 6.81785 15.8195 7.05659 16.0586C7.29534 16.2977 7.60205 16.4296 7.91958 16.4296C8.23711 16.4296 8.54382 16.2977 8.78257 16.0586C9.02132 15.8195 9.17582 15.4894 9.21731 15.1298H9.93414C9.9115 15.7153 9.68692 16.2667 9.30948 16.6637C8.93204 17.0606 8.43241 17.2708 7.91973 17.2484Z" fill="white"/>
<path d="M9.70486 2.62908H9.00551C8.9697 2.32916 8.83996 2.05421 8.64031 1.85515C8.44066 1.6561 8.18463 1.54636 7.91963 1.54636C7.65462 1.54636 7.3986 1.6561 7.19895 1.85515C6.9993 2.05421 6.86956 2.32916 6.83375 2.62908H6.1344C6.1711 2.11706 6.37509 1.63957 6.70583 1.29144C7.03658 0.943316 7.46987 0.75 7.91963 0.75C8.36938 0.75 8.80268 0.943316 9.13342 1.29144C9.46417 1.63957 9.66816 2.11706 9.70486 2.62908Z" fill="white"/>
</g>
</svg>
