<svg width="17" height="12" viewBox="0 0 17 12" fill="none" xmlns="http://www.w3.org/2000/svg">
<path fill-rule="evenodd" clip-rule="evenodd" d="M5.42877 11.7712C5.73271 12.0763 6.22549 12.0763 6.52943 11.7712C6.83337 11.4662 6.83337 10.9716 6.52943 10.6665L2.65904 6.78204L15.7217 6.78204C16.1515 6.78204 16.5 6.43232 16.5 6.00091C16.5 5.56951 16.1515 5.21979 15.7217 5.21979L2.65594 5.21979L6.52962 1.33358C6.83362 1.0286 6.83373 0.534015 6.52985 0.228902C6.22597 -0.0762098 5.73319 -0.0763137 5.42918 0.228672L0.228035 5.44663C0.0820274 5.59311 -1.33514e-05 5.79181 -3.43323e-05 5.99901C-5.53131e-05 6.2062 0.0819454 6.40492 0.227922 6.55143L5.42877 11.7712Z" fill="white"/>
</svg>
