<svg width="18" height="18" viewBox="0 0 18 18" fill="none" xmlns="http://www.w3.org/2000/svg">
<path d="M17.5887 0C16.4748 0.00368002 15.3818 0.296467 14.4211 0.848536C13.4604 1.40061 12.6664 2.19222 12.1199 3.1427L8.41951 2.97203C8.37087 2.96975 8.32225 2.97717 8.27664 2.99384C8.23102 3.01051 8.18941 3.03608 8.15419 3.069L0.104917 10.9515C0.0716856 10.9835 0.045211 11.0217 0.0271964 11.0638C0.00918175 11.1059 0 11.1511 0 11.1968C0 11.2425 0.00918175 11.2877 0.0271964 11.3298C0.045211 11.3719 0.0716856 11.4101 0.104917 11.4421L6.82133 17.7905C6.88717 17.8545 6.97614 17.8904 7.06888 17.8904C7.16161 17.8904 7.25059 17.8545 7.31642 17.7905L15.1845 10.0855C15.2181 10.0518 15.2441 10.0117 15.2611 9.96762C15.2782 9.92358 15.2858 9.87659 15.2835 9.82955L15.0488 3.59457C15.0456 3.50826 15.0096 3.42625 14.9476 3.36482C14.8856 3.30339 14.8023 3.26702 14.7142 3.26293L12.9021 3.17954C13.3995 2.41289 14.0873 1.78226 14.9012 1.34661C15.7151 0.910967 16.6285 0.684525 17.556 0.688458C17.6472 0.689084 17.7351 0.655008 17.801 0.593409C17.867 0.531809 17.906 0.447504 17.9097 0.3583C17.9134 0.269097 17.8816 0.181962 17.821 0.11529C17.7604 0.0486191 17.6756 0.00762887 17.5847 0.00096174L17.5887 0ZM12.1426 7.22598C12.0558 7.25292 11.9654 7.2673 11.8743 7.26866C11.6537 7.26926 11.4397 7.1947 11.2691 7.05775C11.0984 6.92081 10.9817 6.73001 10.939 6.51805C10.8963 6.3061 10.9301 6.08618 11.0348 5.89602C11.1395 5.70585 11.3086 5.55726 11.5129 5.47572C11.5549 6.04894 11.7285 6.60548 12.0208 7.1038C12.0501 7.15402 12.0921 7.19609 12.1426 7.22598ZM14.3656 3.93589L14.5824 9.70446L7.06694 17.0643L0.856504 11.1948L8.54328 3.66729L11.7803 3.81661C11.6601 4.1172 11.5782 4.43117 11.5366 4.75138C11.1363 4.8325 10.7807 5.05561 10.5382 5.37786C10.2956 5.70011 10.1832 6.09876 10.2226 6.49722C10.2619 6.89568 10.4503 7.26583 10.7514 7.53658C11.0525 7.80733 11.4452 7.95959 11.854 7.96407C12.2627 7.96855 12.6588 7.82493 12.966 7.56085C13.2732 7.29676 13.4699 6.93082 13.5184 6.53332C13.5669 6.13583 13.4635 5.73481 13.2284 5.40733C12.9933 5.07985 12.643 4.849 12.2446 4.75914C12.2925 4.44427 12.3886 4.13829 12.5298 3.85153L14.3656 3.93589ZM12.2199 5.47088C12.3522 5.52104 12.4713 5.59963 12.5685 5.70089C12.6656 5.80214 12.7382 5.92348 12.7811 6.05592C12.8239 6.18835 12.8359 6.32853 12.816 6.46609C12.7962 6.60366 12.745 6.7351 12.6664 6.85073C12.6594 6.82098 12.6485 6.79227 12.6337 6.76538C12.4014 6.36842 12.2602 5.92669 12.2199 5.47088Z" fill="white"/>
<path d="M9.11028 10.3923C8.70331 10.5368 8.31819 10.7133 8.10728 10.7938C8.01982 10.8384 7.92109 10.8576 7.82286 10.8492C7.72463 10.8408 7.63093 10.805 7.55271 10.7463C7.46105 10.6531 7.39851 10.5363 7.37237 10.4095C7.34623 10.2827 7.35766 10.1513 7.40525 10.0306C7.48854 9.72386 7.54581 9.41089 7.57652 9.0949C7.5906 8.97942 7.57763 8.86233 7.53869 8.75246C7.49975 8.64259 7.43581 8.54284 7.3517 8.46074C7.16753 8.2862 6.74271 8.04573 5.96541 8.50729C5.59822 8.71993 5.28135 9.00649 5.03566 9.348C4.82813 9.63426 4.65375 9.94224 4.51579 10.2663C4.48794 10.3351 4.46898 10.4071 4.45934 10.4806C4.45323 10.5446 4.46828 10.6089 4.50213 10.664C4.53598 10.7191 4.58691 10.7622 4.64754 10.787C4.73269 10.8151 4.86531 10.8132 4.99601 10.6386C5.06276 10.5422 5.12339 10.4418 5.17732 10.338C5.29453 10.0916 5.43891 9.85841 5.60799 9.64277C5.81296 9.42459 5.92487 9.47987 5.99418 9.52253C6.10904 9.59429 6.0843 9.7727 6.02984 9.97343C5.96449 10.2129 5.84361 10.6309 5.75945 10.9586C5.70465 11.136 5.70169 11.3248 5.75086 11.5037C5.80004 11.6826 5.8994 11.8445 6.03769 11.9709C6.1964 12.1418 6.41175 12.252 6.64556 12.2822C6.87938 12.3124 7.11659 12.2605 7.31508 12.1358C7.65164 11.952 7.99919 11.7882 8.35579 11.6451C8.75187 11.5007 9.05578 11.5191 9.14787 11.6965C9.23996 11.874 9.14199 12.0146 8.95979 12.1959C8.80031 12.349 8.632 12.4931 8.45575 12.6274C8.38198 12.6831 8.31252 12.7441 8.24785 12.8097C8.19262 12.8571 8.15662 12.9224 8.14644 12.9936C8.13626 13.0648 8.15255 13.1372 8.19237 13.1976C8.25096 13.2602 8.33023 13.3007 8.41623 13.3119C8.50223 13.323 8.58945 13.3042 8.66269 13.2587C8.73606 13.2198 8.80628 13.1754 8.87264 13.1258C9.14283 12.9332 9.38971 12.711 9.60839 12.4635C9.88583 12.1654 10.1085 11.8226 10.2668 11.4502C10.3388 11.3144 10.3699 11.1613 10.3564 11.0089C10.3429 10.8564 10.2854 10.7108 10.1906 10.5892C10.0505 10.4556 9.87317 10.3656 9.68092 10.3305C9.48866 10.2955 9.29007 10.317 9.11028 10.3923V10.3923Z" fill="white"/>
</svg>
