<svg width="18" height="18" viewBox="0 0 18 18" fill="none" xmlns="http://www.w3.org/2000/svg">
<mask id="mask0_4690_54084" style="mask-type:alpha" maskUnits="userSpaceOnUse" x="0" y="0" width="18" height="18">
<rect width="18" height="18" fill="#C4C4C4"/>
</mask>
<g mask="url(#mask0_4690_54084)">
<path d="M15.5577 11.6184C15.3229 11.385 15.0596 11.1837 14.7743 11.0166C14.2303 10.6869 13.6685 10.5669 13.1047 10.6612C12.5409 10.7554 11.99 11.0616 11.4636 11.5755C11.3385 11.6955 11.2245 11.8218 11.117 11.9546C11.0249 12.0038 10.733 11.9738 10.1384 11.5755C9.44945 11.113 8.63544 10.3443 8.0826 9.80452L8.01672 9.74022C7.46388 9.20066 6.67392 8.4062 6.20221 7.73384C5.79404 7.15135 5.76334 6.86878 5.81378 6.77874C5.94984 6.6738 6.07925 6.56028 6.20221 6.44046C6.72884 5.92646 7.0426 5.389 7.13899 4.83875C7.23538 4.28849 7.11261 3.74017 6.7748 3.20918C6.60374 2.92871 6.39516 2.67172 6.15823 2.44468C5.52856 1.83013 4.87251 1.51323 4.20999 1.50026C3.52325 1.48958 2.8277 1.80438 2.1476 2.4382C1.90851 2.66086 1.68019 2.97146 1.60355 3.07412L1.59475 3.08691L1.58165 3.10618C0.958444 3.98665 0.973881 5.35063 1.62329 6.94814C2.30573 8.61624 3.6331 10.4429 5.46287 12.2287L5.46718 12.2329L5.52641 12.2886L5.53072 12.2928C7.36049 14.0787 9.23208 15.3743 10.9412 16.0402C11.7771 16.3657 12.5538 16.5284 13.2318 16.5284C13.8769 16.5284 14.4364 16.3808 14.8795 16.0873C14.8862 16.0808 14.8926 16.0766 14.8993 16.0723L14.9124 16.0637C15.0177 15.9887 15.3358 15.766 15.5639 15.5327C16.2155 14.8689 16.5381 14.1901 16.525 13.5198C16.5122 12.8711 16.1873 12.2331 15.5577 11.6184ZM14.9258 14.9397C14.8117 15.0553 14.634 15.1988 14.397 15.3657L14.3707 15.3829C13.7256 15.8112 12.5935 15.762 11.264 15.2459C9.66448 14.6228 7.8961 13.3937 6.15177 11.6912L6.08159 11.6228C4.33726 9.92031 3.07792 8.1944 2.43946 6.63333C1.91066 5.33574 1.85807 4.23086 2.29694 3.60125L2.31668 3.57549C2.48774 3.34425 2.63475 3.17082 2.75321 3.0594C3.75372 2.12585 4.58747 2.12357 5.53754 3.05082C5.72403 3.22635 5.88414 3.42764 6.01805 3.64399L6.02469 3.65678C6.25067 4.01223 6.3318 4.35051 6.27257 4.69527C6.20903 5.06579 5.9764 5.44909 5.58151 5.83449C5.47184 5.94363 5.35553 6.04436 5.23042 6.13651C5.21283 6.1493 5.19524 6.16437 5.17998 6.18153C5.00893 6.36355 4.83105 6.69114 4.96495 7.20934C5.03962 7.50277 5.20852 7.83247 5.4783 8.21577C5.99166 8.94804 6.81895 9.78104 7.39585 10.3443L7.46172 10.4086C8.0388 10.9718 8.8923 11.779 9.64043 12.28C10.0332 12.5433 10.371 12.7061 10.6716 12.7811C11.2026 12.9139 11.5382 12.7404 11.7247 12.5712C11.7402 12.5561 11.7554 12.5391 11.7709 12.522C11.8653 12.3999 11.9683 12.2863 12.0803 12.1793C12.4752 11.7939 12.8679 11.5669 13.2476 11.5049C13.5987 11.447 13.9474 11.5262 14.3116 11.7468L14.3247 11.7533C14.5464 11.884 14.7503 12.0402 14.9325 12.2222C15.8847 13.1495 15.8824 13.9632 14.9258 14.9397Z" fill="white"/>
</g>
</svg>
