<svg width="15" height="17" viewBox="0 0 15 17" fill="none" xmlns="http://www.w3.org/2000/svg">
<path d="M7.5 8.26174C6.1656 8.26174 5.1264 7.91906 4.4064 7.24075C3.66 6.53663 3.2808 5.49218 3.2808 4.13556C3.2808 2.77895 3.66 1.73215 4.4064 1.02568C5.1264 0.345021 6.1656 0 7.5 0C8.8344 0 9.876 0.345021 10.5984 1.02568C11.3496 1.73215 11.7288 2.77895 11.7288 4.13556C11.7288 5.49218 11.3472 6.53663 10.596 7.24075C9.876 7.91906 8.8344 8.26174 7.5 8.26174V8.26174ZM7.5 0.938834C6.4248 0.938834 5.6088 1.19467 5.0736 1.70164C4.5216 2.22504 4.2408 3.04417 4.2408 4.13791C4.2408 5.23165 4.5216 6.04609 5.0736 6.56714C5.6064 7.06942 6.4224 7.32525 7.5 7.32525C8.5776 7.32525 9.396 7.06942 9.9336 6.56714C10.488 6.04609 10.7712 5.2293 10.7712 4.14026C10.7688 1.98563 9.6984 0.938834 7.5 0.938834ZM14.52 16.5H0.48C0.216 16.5 0 16.2888 0 16.0306V14.6575C0 13.3432 0.4176 12.2236 1.2096 11.4162C2.0736 10.5361 3.3552 10.069 4.92 10.069H10.068C11.6328 10.069 12.9192 10.5337 13.7832 11.4139C14.58 12.2236 15 13.3432 15 14.6575V16.0306C15 16.2888 14.784 16.5 14.52 16.5V16.5ZM0.96 15.5612H14.04V14.6575C14.04 13.592 13.7112 12.6954 13.092 12.064C12.4008 11.3622 11.3832 11.0078 10.068 11.0078H4.92C3.6048 11.0078 2.5896 11.3622 1.9032 12.064C1.2864 12.693 0.96 13.5896 0.96 14.6575V15.5612V15.5612Z" fill="white"/>
</svg>
